<svg version="1.1" id="Logo" xmlns="http://www.w3.org/2000/svg" x="0" y="0" width="400" height="400" viewBox="0 0 400 400" xml:space="preserve"><path fill="none" d="M0 0h400v400H0z"/><path fill="#222" d="M292.727 180.29c6.336-3.227 12.319-7.326 17.948-12.301l-5.705-26.842c-2.98 3.828-5.88 7.174-8.699 10.036-2.82 2.863-5.622 5.255-8.408 7.178-4.936 3.712-11.319 6.399-19.151 8.064-15.157 3.222-29.087.626-41.791-7.79-12.705-8.415-20.701-20.359-23.99-35.834-3.33-15.666-.924-30.021 7.219-43.067 8.065-13.096 19.677-21.254 34.833-24.476 13.755-2.924 28.208-.371 43.359 7.656l-5.604-26.364c-13.885-4.569-27.449-5.447-40.694-2.632-24.263 5.157-42.121 18.372-53.574 39.642-8.559 15.984-11.466 32.579-8.751 49.781l-52.458-71.713-39.66 172.263L0 242.511V400h400V157.488L292.727 180.29zm-155.251-78.719l32.534 45.5-44.8 9.522 12.266-55.022zm168.483 233.052c-24.263 5.156-45.951.347-65.064-14.425-14.321-11.12-23.727-25.1-28.243-41.918l-18.755 86.851L87.599 223.892l23.976-5.097 8.816-39.312 63.14-13.421 23.089 32.531-95.045 20.203 24.043 32.329 63.14-13.421 7.861-39.11 24.357-5.177-3.208 14.855c6.688-8.151 14.592-14.553 23.705-19.212l-20.497 4.357-8.972-12.265c9.426 4.725 19.249 7.358 29.47 7.908 6.19-3.165 12.927-5.544 20.237-7.098 14.01-2.978 28.147-2.222 42.414 2.268l5.705 26.841c-4.279-2.285-8.29-4.162-12.029-5.63-3.74-1.469-7.273-2.515-10.601-3.138-6.019-1.384-12.943-1.242-20.776.423-15.157 3.222-26.827 11.259-35.009 24.114-8.185 12.854-10.631 27.02-7.341 42.494 3.329 15.665 11.366 27.8 24.111 36.407 12.694 8.684 26.619 11.414 41.776 8.192 13.756-2.924 25.92-11.136 36.497-24.63l5.604 26.363c-10.823 9.821-22.858 16.142-36.103 18.957z"/><path fill="#222" d="M182.916 315.35l11.215-54.799-44.8 9.523z"/></svg>