<svg version="1.1" id="Layer_1" xmlns="http://www.w3.org/2000/svg" x="0" y="0" width="1000" height="998.61" viewBox="0 0 1000 998.61" xml:space="preserve"><path fill="#D0D0D0" d="M464.58-1.39h22.87c-8.93.28-17.83 1.12-26.75 1.39.97-.34 2.91-1.04 3.88-1.39z"/><path d="M487.45-1.39h25.16C598.67.7 684.11 25.36 757.79 69.95c64.979 39.11 120.86 93.19 162.1 156.83 32.79 50.49 56.33 106.97 68.99 165.82 6.5 30.11 10.15 60.81 11.12 91.59v28.929c-1.55 50.641-10.58 101.09-27.17 148.98-25.45 73.801-68.59 141.4-124.73 195.619-57.22 55.711-128.04 97.34-204.58 120.15-34.868 10.398-70.898 17.049-107.21 19.539-7.278.25-14.54.939-21.818 1.201h-29.03c-56.91-1.721-113.58-12.99-166.65-33.682-72.83-28.25-138.74-73.971-190.879-132.109C74.01 772.969 34.82 699.889 15.18 621.75 5.98 585.59 1.01 548.389 0 511.11v-25.04c.27-8.94 1.14-17.86 1.39-26.811 6.17-79.52 31.71-157.45 74.05-225.07 41.14-66.01 97.88-122.21 164.29-162.7C306.38 30.66 382.78 6.04 460.7 0c8.92-.27 17.82-1.11 26.75-1.39z"/><path fill="#FFF" d="M387.58 92.94c39.2-10.11 79.87-15.19 120.35-13.27 33.552 1 66.83 6.92 99.07 16.13-5.7.85-11.43 1.48-17.19 1.63l-.6.38c-8.4.38-16.75 1.3-25.12 1.93a895.137 895.137 0 0 1-111.09.07c-21.84-1.86-43.71-3.79-65.42-6.87zM350.49 107.66c23.029 3.48 45.979 7.57 69.08 10.52 18.04 2.44 36.17 4.64 54.39 4.83 13.35.59 26.72.5 40.08.25 22.41.32 44.71-2.39 66.89-5.32 16.881-2.37 33.722-5.01 50.5-8.01-1.358 22.19-.97 44.44-.63 66.65 1.4 37.66.61 75.35.97 113.03.132 5.31-.328 10.65.32 15.93-.01 14.69.38 29.38 1.101 44.05-.439 13.52-.739 28.04-8.279 39.81-9.21 12.91-22.4 22.44-36.352 29.69-15.488 7.891-31.398 14.9-47.328 21.83-13.642 5.83-27.33 11.6-41.312 16.58-3.93 1.27-7.82 2.85-11.93 3.38-4.851-.68-9.4-2.7-14.01-4.31-22.11-8.59-43.681-18.521-65.11-28.681-15.55-7.569-31.54-15.029-44.39-26.859-5.15-4.92-10.25-10.08-13.721-16.36-4.569-8.61-5.52-18.52-6.09-28.09-.52-15.36 1.61-30.66 1.66-46.01.54-25.33 1.439-50.65 1.479-76 .79-13.32.33-26.69 1.351-40 1.061-28.96 2.391-57.94 1.331-86.91z"/><path fill="#FFF" d="M149.23 273.06c42.18-70.12 106.32-126.82 181.27-159.72.24 39.08-2.82 78.07-3.29 117.14-.13 2.71-.41 5.41-.4 8.13-.079 29.34-1.149 58.65-1.569 87.98-.71 11.01-.37 22.08-1.49 33.07-.31 11.33-1.64 22.66-.55 33.99.55 12.15 2.609 24.85 9.53 35.14 10.479 14.55 24.899 25.86 40.46 34.57a525.594 525.594 0 0 0 37.829 18.75c-50.35.43-100.71.06-151.06.18-56.03-.03-112.07.07-168.1-.05-.12-10.641.72-21.25.93-31.88l.39-.601c4.13-62.239 23.85-123.319 56.05-176.699zM672.55 121.94c65.86 33.4 122.3 85.13 160.92 148.09 32.08 52.15 52.21 111.8 57.33 172.84l.38.61c.74 12.93 1.722 25.85 1.44 38.81H735.04c-48.7-.11-97.41.229-146.101-.17 25.761-11.391 52.791-23.13 71.561-44.99 9.12-9.479 12.86-22.66 14.1-35.45 2.42-21.32-.608-42.71-.22-64.07-.16-9.66-.12-19.31-.14-28.97-.78-12.99-.222-26.021-.4-39.021.01-11.34.01-22.68 0-34.01.29-37.899-2.01-75.769-1.29-113.669z"/><path d="M385.74 187.51c8.79-7.66 20.64-11.49 32.26-10.63 8.4-.21 15.9 4.09 23.82 6 5.42-2.39 11.38-2.31 17.18-1.77 2.04.24 2.5 2.78 2.43 4.47.04 13.7-.02 27.4.03 41.11.09 1.89-.35 3.74-.99 5.52-4.59.16-9.239.49-13.8-.11-1.97-2.36-2.43-5.521-3.33-8.37-2.5-9.26-5.57-18.95-12.56-25.87-4.8-4.8-12.15-6.73-18.69-4.93-6.899 1.43-12.189 7.229-14.439 13.72-2.17 6.75-.87 14.17 2.05 20.5 3.5 7.9 9.479 14.33 15.53 20.36 15.239 14.32 32.56 26.61 45.279 43.43 9.95 12.56 15.53 28.57 14.88 44.63-.069 15.64-6.489 31.42-18.52 41.64-9.97 9.06-23.38 14.33-36.88 14.04-10.36.32-20.24-3.22-30.061-6.02-2.3.76-4.55 1.66-6.79 2.59-3.43-.01-6.859-.01-10.29 0-.59-.25-1.77-.74-2.359-.99-.33-1.74-.67-3.49-.67-5.26.01-15.32.029-30.63 0-45.94-.04-2.06.34-4.09.729-6.09.54-.35 1.63-1.04 2.17-1.39 4.2.28 8.69-.84 12.65.97 2.18 7.13 2.79 14.64 5.21 21.7 2.7 8.62 7.46 17.25 15.56 21.83 9.53 5.02 22.41 4.03 30.341-3.55 6.14-6.13 9.38-14.91 9.199-23.54.271-10.09-3.77-19.94-10.08-27.7-14.189-17.45-32.83-30.4-48.609-46.26-11.49-11.53-19.63-27.37-18.78-43.96-.64-15.12 5.79-30.47 17.53-40.13zM486.6 181.49c-.31-1.87 1.62-3.34 3.351-3.18 18.08-.09 36.18.01 54.27-.05.512.32 1.53.96 2.05 1.28.012 3.04.2 6.1-.079 9.14-1.069 2.91-4.239 3.97-6.409 5.87-3.07 2.32-4.34 6.31-4.12 10.04.12 47.74-.142 95.47.14 143.2.852 6.39 2.29 13.27 7.19 17.87 5.8 5.47 14.56 6.23 22.04 4.7 6.488-1.27 12.13-5.84 14.75-11.91 3.43-7.44 3.77-15.8 3.608-23.86 0-43.66-.01-87.33.012-130.99.238-3.79-1.562-7.67-4.82-9.68-2.6-1.74-6.11-3.56-5.84-7.24.18-2.72-1.04-6.96 2.21-8.24 10.989-.39 22.02-.04 33.029-.17 3.211.08 6.579-.43 9.631.89-.03 3.47.528 7.06-.33 10.46-2.271 3.21-6.682 4.18-8.54 7.76-1.182 1.85-1.5 4.06-1.46 6.22.01 41.35 0 82.71.01 124.06-.08 8.48.53 17.08-1.48 25.4-2.17 10.28-7.988 19.78-16.39 26.13-7.28 5.79-16.25 9.03-25.34 10.57-16.25 1.86-33.88.2-47.46-9.7-11.94-8.03-19.45-22.07-19.36-36.47-.01-47.39-.069-94.78.03-142.16-.89-4.29-4.08-7.36-7.75-9.43-3.893-2.07-2.953-6.87-2.943-10.51z"/><path fill="#FFF" d="M44.1 348.45c2.52-6.34 4.41-12.99 7.39-19.11.12 1.92.08 3.84.04 5.76 3.86 4.35 9.87 5.71 15.3 6.95 8.55-.89 17-2.98 25.2-5.57 3-.77 4.77-3.46 6.99-5.38-1.89 6.84-4.16 13.74-7.49 20.02-.11-2.3-.06-4.59-.17-6.87-6.71-.4-12.97 2.6-19.4 4.06-2.78-.06-1.07 2.28-.36 3.42 3.17 4.49 5.85 9.46 9.8 13.32 3.1 1.62 4.63-2.47 6.6-4.05-.52 3.36-1.91 6.47-3.03 9.66-.98 2.62-1.75 5.42-3.58 7.62.01-3.1.82-6.45-.96-9.26-3.14-5.68-6.96-10.98-10.56-16.38-1.73-2.83-5.1-3.71-7.98-4.89-3.56-1.27-7.09-2.74-10.81-3.52-3.35-1.15-4.49 2.93-6.06 4.98l-.92-.76zM48.7 373.46c5.03-.85 10.45-.86 15.22 1.16 7.01 3.1 12.76 9.3 14.62 16.82 2.41 9.2-1.5 20.03-9.97 24.75-5.2 3.34-11.68 3.939-17.66 2.829-9.59-2.279-17.23-10.859-18.89-20.5-1.79-10.999 5.66-22.679 16.68-25.059z"/><path d="M45.47 381.3c6.85-.8 14.15-.75 20.44 2.41 5.01 2.33 9.81 6.3 11.18 11.87.98 4.79-1.2 10.16-5.36 12.79-6.08 3.87-13.83 4.439-20.67 2.46-6.54-1.8-13.21-5.51-16.28-11.83-3.45-7.58 2.79-16.65 10.69-17.7z"/><path fill="#FFF" d="M67.18 432.75c3.35-.37 3.75-4.09 5.23-6.43.5 6.96-1.24 13.83-1.33 20.79-.34.109-1.01.35-1.35.46-.4-1.7-.27-3.7-1.52-5.061-2.17-2.18-5.41-2.38-8.26-2.939-7.59-.98-15.23-1.811-22.9-1.61-4.53-.11-8.34 3.53-9.66 7.65-1.23 3.83-1.47 8.06-.49 11.97 1 3.67 4.22 6.24 7.81 7.17 7.64 1.86 15.52 2.35 23.33 3.12 2.79.05 6.11.1 8.22-2.04 1.27-1.22 1.38-3.09 1.88-4.67l1.37.05c-1.01 5.75-.19 11.94-2.4 17.41-.62-2.061-1.21-4.11-1.91-6.13-10.97-4.32-23.43-2.09-34.32-6.771-4.85-2.359-6.97-8-7.27-13.08-.31-6.659.84-14.069 5.67-19.029 3.12-2.98 7.72-2.91 11.73-2.66 8.7.78 17.41 2.36 26.17 1.8z"/><path fill="#D0D0D0" d="M0 462.32c.47-1.021.93-2.04 1.39-3.061C1.14 468.21.27 477.13 0 486.07v-23.75z"/><path fill="#FFF" d="M21.64 481.03c.36-.05 1.09-.16 1.46-.21.18 1.63.39 3.26.63 4.899 1.67.74 3.34 1.7 5.24 1.641 7 .199 14.01-.141 21.02-.061 5.17-.08 10.49.42 15.46-1.29.58-1.68 1.08-3.38 1.51-5.09l1.28-.08c.12 7.95.43 15.9.46 23.85.05 4.551-1.09 9.59-4.89 12.49-4.4 3.801-11.93 2.66-15.17-2.119-1.37-2.24-2.14-4.762-2.9-7.25-1.33 2.139-2.43 4.5-4.3 6.25-4.51 3.699-11.22 2.459-15.64 6.34-2.13 1.738-2.12 4.738-2.9 7.17-1.4-2.451-1-5.311-.76-7.98.3-2.41-.76-5.711 1.58-7.279 5.73-3.01 13.08-1.49 18.31-5.619 3.75-3.102 2.79-8.481 2.6-12.75-5.93.08-11.92-.381-17.8.479-3.06.66-3.53 3.93-3.78 6.541-.29-.27-.88-.801-1.17-1.07-.4-6.282.05-12.582-.24-18.862z"/><path d="M46.41 493.94c6.66-.21 13.33-.07 19.99.01.98 4.8 1.98 10.509-1.33 14.66-3.51 4.34-10.7 4.59-14.55.551-4.11-3.891-3.62-10.061-4.11-15.221z"/><path fill="#FFF" d="M487.16 523.559c1.51-.52 3.01-1.289 4.66-1.289 7.529-.189 15.069-.221 22.6-.42.48 39.93.13 79.891-.729 119.801-.19 4.85 1.818 10.549 6.908 12.068 2.222 1.17 6.762.529 5.94 4.262-8.87.908-17.86.289-26.771.289-.26-5.9-.199-11.801-.1-17.699-4.61 8.559-11.8 16.789-21.76 18.76-9.561 2.25-19.28-2.07-26.55-8.09-6.57-4.971-11.53-12.111-13.551-20.121-4.189-16.25.021-34.709 11.921-46.76 7.59-8.301 19.21-12.49 30.359-11.02 8.271.84 15.95 5.979 19.57 13.52 1.31-10.01.74-20.141.88-30.199-.12-8.621.06-17.32-1.41-25.84-1.597-5.711-9.287-2.961-11.967-7.262zM289.39 547.741c-.12-1.961 1.33-3.08 2.78-4.08.63 1.209 1.59 2.459 1.35 3.949-.41 8.58-.16 17.17-.22 25.76 9.11.141 18.25-.699 27.34.131.101 2.271-.159 4.529-.89 6.689-8.79.67-17.62.811-26.39 1.75-.84 9.221-.94 18.479-1.18 27.74-.54 9.26-.59 18.58.53 27.811.68 4.229 2.12 8.949 6.03 11.299 5.1 3.32 11.859 2.631 17.029-.18 2.25-.98 4.261-2.93 6.87-2.709.801 3.18-2.25 5.209-4.3 7.01-7.45 6.5-18.38 8.93-27.81 5.898-6.88-2.318-10.61-9.398-11.82-16.141-1.94-11.59-.36-23.328-.27-34.979.07-8.58 1-17.119 1.11-25.699-5.25-1.221-10.7-.541-15.99-1.352-1.55.092-2.08-2.439-.56-2.908 6.14-2.891 11.83-6.682 17.02-11.051 5.521-4.761 8.511-11.819 9.371-18.938zM762.16 546.981c-.13-1.932 1.7-2.531 3.17-3.15.49 1.91 1.109 3.85.8 5.869-.79 7.84-.13 15.73-.32 23.602 7.382.1 14.762-.131 22.15-.201 1.89-.049 3.75.381 5.57.92-.3 2.051-.69 4.102-1.12 6.141-8.86.75-17.78.76-26.602 1.852-.738 16.83-1.88 33.68-1.119 50.529.699 5.229.971 11.379 5.25 15.119 4.511 4.121 11.551 4.16 16.881 1.67 2.979-1.109 5.479-3.709 8.88-3.389-.44 3.988-4.05 6.289-6.892 8.6-7.658 5.619-18.47 7.33-27.3 3.6-7.29-3.549-10.04-12.01-10.83-19.529-.72-8.971-.028-17.98.102-26.959.77-9.83.68-19.721 1.528-29.541-5.778-1.52-11.869-.449-17.67-1.91-.01-.479-.05-1.439-.06-1.92 6.62-3.049 12.729-7.141 18.31-11.82 5.602-4.924 8.362-12.233 9.272-19.483zM55.53 548.11c5.36-3.109 11.86.301 14.83 5.1 3.42 5.15 2.76 11.811.99 17.432 1.21.641 2.42 1.289 3.61 1.971-4.53 1.439-9.1 2.898-13.83 3.559 2.07-2.709 5.28-4.25 7.23-7.059 2.67-3.5 3.81-8.432 1.76-12.5-2.22-4.951-10.31-6.061-13.11-1.061-3.1 6.1-2.42 13.359-5.38 19.52-2.25 4.59-7.46 7.641-12.59 6.85-6.3-.949-11.69-6.209-12.92-12.449-1.33-4.801.15-9.721 1.73-14.25-1.21-.449-2.42-.891-3.63-1.311.1-.34.29-1.02.38-1.359 5.07-.91 10.05-2.75 15.25-2.68-.11.229-.32.689-.43.92-5.53 3.66-12.26 8.311-12.01 15.779-.48 6.359 6.27 12.32 12.46 9.939 5.4-1.77 6.75-7.971 7.62-12.891.97-5.75 2.1-12.811 8.04-15.51zM196.76 577.43c8.03-6.5 19.54-7.182 28.99-3.65 3.38 1.09 6.35 3.359 9.97 3.711 1.07-1.201 2.14-2.41 3.34-3.48 2.46 1.08 1.94 4.271 2.35 6.5-.02 6.65 1.72 13.369.16 19.949-.88-.148-1.76-.299-2.64-.43-2.26-6.129-4.95-12.18-8.77-17.5-4.23-6.07-12.42-7.59-19.32-6.479-5.7.859-11.84 5.279-11.65 11.568-.44 4.91 2.96 9.311 6.89 11.852 9.45 5.109 19.68 8.68 29 14.061 6.99 3.949 11.17 12.199 10.42 20.16-.74 15.1-15.53 27.438-30.47 26.18-7.9-.451-14.65-4.891-22.05-7.1-1.66 1.949-3.26 3.979-5.14 5.738-2.12-2.449-1.61-5.881-1.97-8.869-.04-6.682-.32-13.359-.31-20.029l1.28-3.041c1.12.779 2.33 1.721 2.72 3.131 3.09 8.479 7.64 16.869 14.87 22.51 7.23 5.619 18.44 5.352 24.98-1.229 4.64-4.66 5.29-12.701 1.15-17.9-6.44-8.41-17.05-11.43-26.11-16.051-5.16-2.459-10.72-5.049-13.75-10.189-5.94-9.454-2.95-22.973 6.06-29.413zM552.97 584.639c7.511-7.699 18.11-13.26 29.102-12.08 11.55.961 21.778 8.422 27.869 18.021 3.239 5.811 5.489 12.92 3.649 19.529-3.858.59-7.77.721-11.67.76-15.16.141-30.32.531-45.479.541-2.012 11.5.479 24.24 8.658 32.91 5.91 6.729 15.17 9.67 23.95 8.539 8.19-1.529 14.97-6.539 20.94-12.07.64.121 1.91.371 2.55.49.07 3.66-2.83 6.32-5.229 8.689-14.729 12.932-39.439 13.99-54.079.34-18.691-16.458-17.901-48.727-.261-65.669zM626.48 575.661c.618-1.18.89-3 2.64-2.621 7.46.012 14.92.061 22.39-.189 2.12 6.221 2.11 12.82 2.972 19.271 4.77-7.871 11.81-14.85 20.75-17.65 8.68-2.658 18.698-1.471 26.34 3.512 7.26 5.029 8.608 14.5 8.948 22.67.222 14.33-.59 28.67-.318 43.01.229 2.82.05 6.289 2.648 8.16 2.592 1.818 5.762 2.459 8.67 3.629-.05.891-.1 1.781-.14 2.68-10.71-1.469-21.55-1.357-32.3-.529-1.73.201-3.42-.238-5.1-.471.148-.85.318-1.688.5-2.52 2.948-.619 6.06-1.119 8.618-2.811 2.932-2.141 2.65-6.061 3.11-9.25.57-9.301.51-18.631.67-27.939-.07-7.75-.06-15.66-2.58-23.08-1.74-5.279-5.99-9.869-11.39-11.439-7.392-2.24-15.392 1.539-20.102 7.279-6.34 7.189-8.608 16.852-9.948 26.09-1.17 9.682-1.521 19.461-.96 29.191.5 3.83.329 8.809 4.29 10.92 2.729 1.908 7.85.299 8.52 4.6-6.89.551-13.79-.35-20.69-.141-5.81-.1-11.618.449-17.408-.061-.092-.641-.28-1.92-.38-2.561 3.898-1.959 10.47-1.469 11.658-6.729 1.98-10.211 1.512-20.682 1.802-31.021-.08-9.049.31-18.109-.4-27.141-.51-3.43-.86-7.18-3.24-9.898-2.36-2.961-6.35-3.403-9.57-4.961zM333.32 577.68c0-1.08.02-2.15.069-3.211 7.61-.391 15.24-.148 22.87-.189.521 20.49.44 40.98 1.49 61.451.27 6.34 3.8 12.67 9.7 15.359 4.22 1.979 9.21 1.1 13.2-1.041 6.51-3.561 11.699-9.398 14.59-16.229 1.99-8.23 1.939-16.762 2.18-25.17.061-7.721.14-15.441-.189-23.16-.551-1.781-.721-3.771-1.921-5.26-2.529-2.08-5.949-2.092-9.04-2.512-.01-1.1 0-2.189.03-3.27 8.29-.371 16.601-.141 24.9-.15 1.37 22.061-.061 44.16.109 66.24.091 3.33.15 6.85 1.74 9.879 1.66 3 5.391 3.221 8.34 4.07.09.84.181 1.689.28 2.541-5.74 1.629-11.78.561-17.66.889-2.46-.139-6.05.65-7.27-2.18.41-5.129.729-10.279.38-15.43-6.42 6.779-13.061 14.02-22.18 17.061-8.681 3.119-19.78 2.799-26.421-4.371-4.409-4.26-4.93-10.709-5.22-16.479-1.05-10.619-.91-21.32-1.14-31.98-.82-8.379.13-16.84-.851-25.209-2.576-.94-5.276-1.338-7.986-1.649z"/><path d="M565.06 583.629c4.132-4.24 9.69-7.939 15.87-7.471 11.53.92 20.262 13.65 17.32 24.781-1.21 2.85-4.14 4.639-7.13 5.08-11.57 1.719-23.29.58-34.91.158 1.33-7.968 3.22-16.407 8.85-22.548zM471.33 578.081c7.03-1.92 15.29-.551 20.67 4.58 4.17 4.209 6.23 10.049 7.23 15.789 1.77 11.352 1.289 23.09-1.341 34.271-1.79 8.148-7.43 15.279-14.939 18.898-4.49 2.131-9.99 2.051-14.36-.318-5.83-3.109-10.38-8.512-12.43-14.791-3.17-9.279-2.96-19.26-2.44-28.908.74-7.812 2.271-15.932 7.011-22.381 2.549-3.541 6.379-6.07 10.599-7.14z"/><path fill="#FFF" d="M62.74 582.62c4.07-1.09 8.28-1.459 12.47-1.639 2.56 12.279 4.96 24.609 8.48 36.658.81 2.852 2.06 5.66 2.04 8.67-3.54 1.391-7.2 2.531-10.89 3.451 1.11-3.859 5.39-5.98 5.84-10.121.36-4.049-.33-8.141-1.59-11.971-6.31.391-12.37 2.422-18.51 3.791-6.41 1.77-13.06 2.971-19.13 5.729-3.65 2.051-1.54 6.58-2.33 9.891-3.19-7.67-4.22-16.049-6.41-24.029.32-.01.97-.039 1.3-.061.86 1.859 1.25 4.291 3.22 5.359 2.01 1.48 4.63.871 6.86.42 11.24-2.52 22.46-5.199 33.41-8.789-1.08-4.619-2-9.84-5.86-13.029-2.49-2.33-6.07-2.59-8.9-4.33zM85.44 628.87c.37.131 1.11.381 1.48.51 2.01 6.602 5.47 12.762 6.79 19.57-2.16-1.648-3.51-5.109-6.66-4.729-3.56.141-6.87 1.619-10.2 2.738-5.89 2.25-11.88 4.33-17.45 7.32-4.37 2.189-6.57 7.711-5.16 12.35.75 3.393 2.17 6.711 4.33 9.451 2.46 2.9 6.65 4.311 10.34 3.369 6.94-1.5 13.54-4.229 20.18-6.67 3.54-1.549 7.92-3.07 9.17-7.16-.17-1.559-.55-3.08-.84-4.6.39.061 1.18.189 1.57.26 1.7 5.439 4.69 10.531 5.5 16.221-1.4-1.41-2.58-3.041-4.17-4.221-2.06-.629-4.25-.16-6.25.439-8.69 2.65-16.99 6.779-26.03 8.17-6.01 1.051-11.32-3.27-14.14-8.189-3.07-5.459-5.19-11.898-3.93-18.199.83-4.471 4.97-7.199 8.9-8.801 7.42-2.949 15.08-5.289 22.28-8.789 1.6-.84 3.29-1.689 4.41-3.141.56-1.948.04-3.948-.12-5.899zM324.35 679.889c.141-1.5.41-4.148 2.641-3.699 8.029-.051 16.05.479 24.08.711 7.21.209 14.58-1.871 21.67-.021-.08.98-.15 1.971-.23 2.971-2.96.619-6.31.6-8.75 2.631-2.43 1.908-3.31 5.039-3.88 7.949-1.63 9.619-1.479 19.42-1.59 29.148.09 9.48-.29 19.07 1.729 28.391 1.58 7.262 7.87 12.771 14.891 14.641 7.37 1.891 15.41 1.971 22.57-.82 6.489-2.85 9.989-9.689 11.329-16.318 1.99-10.82 1.96-21.881 1.99-32.842-.05-7.92.37-16-1.79-23.709-.81-2.561-2.16-5.1-4.479-6.568-2.601-1.393-5.61-1.58-8.38-2.48.1-1.201.22-2.381.369-3.561 5.511-.561 10.961.75 16.471.6 5 .15 9.96-.859 14.96-.76 1.93-.35 2.939 1.26 3.91 2.6-2.65 1.861-6.19 1.812-8.681 3.951-2.81 2.279-3.96 5.939-4.529 9.379-1.091 9.141-.94 18.361-1.08 27.551-.09 11.32.71 22.961-2.83 33.891-2.34 7.27-8.41 12.859-15.3 15.83-9.221 4.119-19.53 4.221-29.431 3.721-9.66-.771-20.45-2.76-26.85-10.76-5.74-6.82-5.67-16.281-5.521-24.701.021-12.66.19-25.32.15-37.99-.16-5.289-.08-10.949-2.71-15.709-2.479-3.367-7.159-2.787-10.729-4.027zM435.29 680.081c-.83-1.93.26-4.271 2.62-3.76 8.52.5 17.05.488 25.59.609 18.55 21.16 37.32 42.16 56.94 62.34.21-13.01.29-26.029.118-39.039-.289-5.361-.318-11.781-4.858-15.48-3.44-3.061-8.2-3.35-12.41-4.631.01-1.049.03-2.09.06-3.119 3.49-1 7.062.102 10.602.07 7.97.068 15.97.318 23.91-.541 1.63-.289 3.229.189 4.8.57-.01.971-.03 1.949-.04 2.939-3.96 1.23-8.45 1.539-11.602 4.539-3.25 2.641-3.77 7.07-4.14 10.961-.32 9.369.26 18.75 0 28.119 1.08 13.66-.35 27.33-.14 41-.45 2.771.87 6.371-1.54 8.461-2.49.5-4.07-1.66-5.67-3.121-14.87-15.5-29.11-31.568-43.34-47.648-4.98-5.801-10.181-11.41-14.87-17.439-.82 8.891-.44 17.82-.521 26.73-.069 8.77-.03 17.6 1.22 26.289.99 6.16 7.24 9.631 12.961 10.26 1.27.229 4.319.35 3.38 2.5.35 1.84-2.16 1.58-3.28 1.721-10.67-.689-21.44-1.061-32.08.299-1.49.23-2.98-.059-4.43-.299-.28-.541-.83-1.621-1.101-2.16 2.181-2.59 5.75-1.91 8.67-2.77 2.78-.592 5.46-2.342 6.53-5.062 1.86-4.357 1.95-9.188 1.97-13.85-.01-15.709.061-31.42-.38-47.119-1.24-6.689-4.359-13.221-9.84-17.439-2.629-2.161-6.099-2.622-9.129-3.93zM550.5 677.03c5.48-.549 10.99.061 16.49.15 10.16.391 20.33-.66 30.49-.199.09 1.02.18 2.059.278 3.1-3.51 1.34-7.99.721-10.76 3.6-3.1 5.012-2.5 11.15-3.08 16.779-.439 12.371-.271 24.762-.01 37.141.89 8.98-.34 18.4 2.88 27.012 1.33 3.639 5.689 3.729 8.93 4.129.971.4 3.261 0 2.62 1.801.36 2.23-2.72 2.709-4.35 2.59-8.972-.189-17.92-1.42-26.91-.961-5.59-.129-11.101 1.211-16.69.842-.06-1.211-.09-2.41-.09-3.602 3.182-.74 6.74-.949 9.352-3.129 1.658-1.352 2.158-3.541 2.58-5.521 1.229-9.318 1.06-18.738 1.229-28.119-.13-14.73.47-29.521-1.29-44.17-.52-2.211-.97-4.791-2.99-6.121-2.79-1.279-5.898-1.43-8.81-2.27.031-1.033.071-2.052.131-3.052zM630.43 684.12c8.91-6.119 19.87-8.799 30.602-8.359 14.63-.229 29.7 6.029 38.488 18 7.012 9.029 10.24 20.631 9.682 31.99-1.21 16.42-11 31.449-24.72 40.279-9.57 6.15-21.302 8.4-32.541 7.34-13.399-.729-26.341-7.49-34.721-17.949-8.318-10.529-10.568-24.75-8.608-37.76 1.888-13.721 10.578-25.791 21.818-33.541zM716.62 679.799c-.78-2.229 1.18-3.869 3.31-3.479 8.4.619 16.82.439 25.24.58 16.71 19.148 33.71 38.049 51.23 56.469 1.8 2.021 3.76 3.891 5.8 5.682.18-8.48-.09-16.971.18-25.461-.01-7.631.34-15.359-1.24-22.881-.93-3.859-4.09-6.85-7.67-8.318-2.83-1.051-5.87-1.391-8.688-2.432 0-.93.01-1.84.028-2.75 3.63-1.449 7.45.012 11.21-.119 7.99.039 16.012.301 23.961-.59 1.609-.25 3.171.41 4.729.729.271 4.41-4.729 3.48-7.51 4.689-4.96 1.58-8.16 6.361-8.46 11.451-.5 11.379.14 22.789-.021 34.18.19 13.689-.148 27.381-.3 41.08.061 1.641-.65 3.16-1.18 4.689-3.78.051-5.761-3.439-8.23-5.67-16.67-17.391-32.5-35.551-48.42-53.609-2.358-2.699-4.74-5.391-6.688-8.391-.461-1.25-1.802-.439-2.58-.119l1.528.299c-.619 11.59-.1 23.23-.278 34.852-.19 6.068.488 12.109 1.13 18.141 2.188 6.459 9.17 9.609 15.6 9.629.33.67.67 1.352 1.03 2.041-.43.619-.84 1.25-1.24 1.889-12.58-.5-25.24-1.188-37.76.66-1.08-.939-2.021-2.029-1.771-3.561 4.21-2.359 10.052-.84 13.472-4.85 2.72-3.711 3.02-8.58 3.318-13.02.2-15.711-.119-31.41-.18-47.121-.58-7.859-3.84-15.91-10.34-20.68-2.71-2.118-6.27-2.39-9.21-4.009zM106.43 684.139c-.42-1.879-.82-3.77-.62-5.689 3.01 4.66 4.76 10.01 7.77 14.689 4.65 7.641 8.81 16.859 6.06 25.932-3.67 13.398-20.75 20.789-33.02 14.199-8.18-4.25-11.61-13.32-15.31-21.18-2.23-4.682-5.33-8.922-7.33-13.711 2.66 1.631 4.29 5.801 7.98 4.82 6.86-2.271 13.06-6.102 19.54-9.23 5.27-2.76 11.18-4.978 14.93-9.83z"/><path d="M653.6 681.411c5.062-1.041 10.62-.621 15.102 2.129 7.6 4.41 11.898 12.82 13.858 21.121 2.381 9.469 2.23 19.32 1.802 29-.9 8.82-2.521 18.141-8.2 25.27-4.63 6.23-12.352 10.541-20.271 9.352-9.93-.932-16.8-9.791-19.79-18.641-4.539-13.771-4.51-28.771-2.028-42.939 2.047-10.712 8.247-22.333 19.527-25.292zM108.14 692.75c.69-.189 2.08-.561 2.78-.75 4.08 5.629 7.26 12.65 5.53 19.75-3.66 11.98-17.43 19.811-29.58 16.619-6.5-1.5-10.82-7.609-12.31-13.789-.69-4.461 3.62-6.871 6.93-8.631 8.8-4.56 17.66-9.031 26.65-13.199z"/><path fill="#FFF" d="M131.07 724.241c3.77 4.41 6.48 9.609 10.06 14.17 3.89 5.66 8.41 10.891 11.91 16.799-2.62 2.842-5.29 5.641-8.17 8.221 1.18-4.83 3.16-10 1.3-14.92-2.16-4.35-5.18-8.27-8.68-11.609-5.771 2.551-10.58 6.961-15.72 10.59 1.97 2.771 3.83 5.971 7.02 7.51 2.63.441 5.25-.229 7.81-.779-.1.32-.32.971-.42 1.301-5.39 2.68-9.55 7.221-14.89 9.939 1.35-2.541 3.85-4.801 3.58-7.898-.23-3.32-2.32-6.15-4.25-8.721-3.29 1.09-5.76 3.84-8.64 5.709-3.18 2.48-8.22 5.291-6.41 10.141 2.26 5.02 6.06 9.49 10.87 12.221 3.69 2.24 8.07 1.311 12.13 1.289-3.42 2.691-7.68 3.92-11.6 5.691-5.2-7.16-10.54-14.223-15.38-21.631-2.53-4.021-5.8-7.561-7.83-11.869 2.05 1.238 3.6 3.639 6.09 3.93 3.9-.852 7-3.602 10.21-5.811 7.48-5.779 15.79-10.682 22.29-17.609-.58-2.205-1.08-4.414-1.28-6.664zM156.17 760.709c3.36.68 4.82 4.33 7.18 6.48 1.31 1.068 1.7 2.699 1.25 4.318-2.22 14.119-4.02 28.291-6.11 42.42 5.94-4.279 11.31-9.26 16.81-14.068 1.93-1.811 4.11-3.58 5.03-6.15.83-3.301-1.5-6-2.53-8.92 5.07 4.449 9.53 9.619 13.58 15-3.19-1.35-6.69-4.521-10.21-2.109-10.63 7.971-19.92 17.67-30.79 25.311 1.65-15.939 4.81-31.701 6.55-47.641-7.43 6.609-15.4 12.811-21.55 20.689-2.55 3.189.38 6.869 1.76 9.879-3.14-1.578-4.88-4.76-7.22-7.229-2.15-2.66-5.14-4.859-6.11-8.279 1.76 1.209 3.21 2.92 5.19 3.789 2.88.73 5.32-1.439 7.41-3.07 5.98-5.43 12.05-10.76 17.89-16.35 3.41-3.051 3.96-7.939 3.36-12.24-.38-.458-1.12-1.378-1.49-1.83zM184.35 809.11c2.12-3.551 5.9-5.57 8.86-8.32 11.1 10.611 21.86 21.641 33.94 31.182-1.85 3.6-4.56 6.68-7.38 9.539-.33-3.02.76-5.979.47-8.971-.771-5.311-5.38-8.719-8.98-12.199-7.34 6.91-13.99 14.51-20.69 22.039-2.09 2.58-4.51 4.98-5.89 8.062-.62 3.369 2.5 5.568 4.17 8.09-3.45-1.15-5.66-4.281-8.35-6.541-3.44-3.43-7.23-6.51-10.48-10.119 3.03.9 5.75 3.539 9.12 2.279 2.91-1.811 5.03-4.57 7.43-6.949 6.78-6.939 13.14-14.271 19.32-21.74-3.02-3.26-6.33-6.689-10.8-7.801-3.66-1.131-7.22.67-10.74 1.449zM227.63 872.741c2.21-9.451 10.51-17.301 20.24-18.432 7.64-.85 15.87 1.5 21.26 7.16 2.69 2.59 4.56 5.84 6.68 8.891l3.8-.16c-1.81 3.92-3.93 7.689-5.69 11.65-.33.051-.99.148-1.32.199.36-5.359.83-11.131-1.95-15.979-3.27-6.67-11.54-10.371-18.64-7.971-11.61 3.561-20.36 16.25-17.97 28.439 1.23 7.529 8.22 14.08 16.08 13.43 5.15-.658 7.35-5.93 9.02-10.18 1.1-3.67-2.99-5.57-5.04-7.801 2.29-.129 3.98 1.59 5.83 2.66 4.47 3.09 9.48 5.381 13.65 8.9-2.54-.25-5.05-.73-7.6-.779-2.62 3.34-4.49 7.25-7.4 10.35-8.1.27-16.67-1.82-22.81-7.35-6.54-5.537-9.85-14.6-8.14-23.027zM709.79 874.28c2.24-1.24 4.39-2.699 6.85-3.469 2.302 3.039 4.17 6.379 5.99 9.729-3.8-.41-6.688-3.67-10.61-3.52-4.188.068-7.96 2.309-11.648 4.059-.602 1.58.75 3.221 1.24 4.721 4.92 10.012 9.6 20.211 15.619 29.619 2.271 3.643 6.899 1.531 10.069.5-1.46 2.73-4.85 3.211-7.31 4.691-5 2.109-9.521 5.479-14.852 6.699 1.94-2.061 5.29-3.432 5.46-6.609.16-3.109-1.729-5.791-2.89-8.521-4.5-9.35-9.21-18.609-14.51-27.529-4.44 1.811-9.21 4.061-11.602 8.449-1.528 2.65-1.46 5.779-1.449 8.75-.319.051-.96.131-1.279.182-1.38-3.551-2.66-7.131-3.76-10.76 11.622-5.521 23.512-10.562 34.682-16.991zM298.64 881.799c8.58-.859 17.64 3.602 21.69 11.32 2.86 5.689 3.81 12.549 1.53 18.619-4.28 13.051-20.96 20.641-33.39 14.311-6.59-2.949-11.34-9.369-12.31-16.52-2.25-13.429 8.96-27.019 22.48-27.73z"/><path d="M298.37 885.161c6.78-3.66 15.95.879 17.49 8.33 2.899 12.51-4.53 26.818-16.38 31.77-8.08 3.391-17.47-4.26-17-12.689.35-10.863 5.59-22.654 15.89-27.411z"/><path fill="#FFF" d="M665.79 895.299c2.63-.93 5.24-2.311 8.1-2.039-2.6 2.08-7.06 4.189-5.97 8.279 3.67 12.801 9.04 25.09 12.59 37.939-3.62-1.16-6.729-3.369-10.028-5.16-10.75-5.859-21.16-12.311-32.03-17.93 3.35 9.01 6.33 18.238 11.02 26.68 1.602 3.1 5.53 3.59 8.53 2.381.4.01 1.21.039 1.62.049-.32.371-.97 1.111-1.29 1.471-6.13 1.881-11.95 4.932-18.311 6 2.08-1.77 4.479-3.1 6.54-4.891.21-5.568-2.54-10.559-4.381-15.639-2.18-5.23-3.688-10.762-6.358-15.762-2.61-4.17-7.45-5.77-12.13-5.891 3.75-1.83 7.77-2.979 11.64-4.529 13.03 7.57 26.229 14.84 39.38 22.199-2.77-8.529-5.359-17.199-9.24-25.289-2.188-4.148-7.17-3.1-10.979-2.881 3.467-2.266 7.467-3.487 11.297-4.987zM328.55 894.12c6.78 2.771 13.99 4.57 20.42 8.102-1.989.061-3.989-.121-5.979.029-3.66 3.359-2.49 8.939-2.79 13.391-.59 7.17-.36 14.369-.41 21.561.3-.031.9-.08 1.2-.109 5.78-7.07 11.88-13.881 17.58-21.021 1.359-1.979 3.319-4 2.85-6.6-1.3-1.551-2.939-2.762-4.38-4.16 5.48.67 10.37 3.59 15.62 5.141.07.35.2 1.061.26 1.41-1.97.039-4.05-.41-5.92.379-3.59 2.041-6.16 5.359-8.9 8.371-7.3 8.529-14.449 17.229-22.1 25.449-.58.061-1.72.189-2.29.25.09-14.26.04-28.521-.39-42.771 0-3.439-1.65-6.648-4.86-8.1.019-.332.069-.992.089-1.322zM374.53 910.76c3.859.43 7.45 1.979 11.17 2.971 8.37 2.289 16.8 4.328 25.18 6.549-.06 3.73-.21 7.48-.54 11.211l-1.27-.361c-1.5-4.438-3.57-9.42-8.17-11.398-4.391-1.789-9.091-2.99-13.851-2.98-1.79 5.91-3.58 11.83-4.81 17.891 3.21.621 6.479 2.102 9.79 1.24 2.76-1.068 3.72-4.471 6.58-5.318-1.86 5.639-3.561 11.357-4.551 17.238-.329.119-.979.342-1.31.461-.23-2.602.16-5.541-1.69-7.641-2.38-2.621-6.069-3.371-9.35-4.189-1.49 5.75-3.39 11.461-3.94 17.398.381 3.191 3.45 4.59 6.101 5.611-1.76-.062-3.51.049-5.26.18-4.98-1.381-9.92-2.939-14.98-4-.18-.34-.53-1.029-.7-1.371 2.07.051 4.15.08 6.23.021 1.99-2.83 3.14-6.109 3.939-9.449 2.19-9.09 4.99-18.041 6.45-27.291.792-3.423-3.598-4.273-5.018-6.773zM592.17 918.09c8.71-1.932 17.36-4.16 26.04-6.25 1.75 3.658 3.55 7.328 4.74 11.229-4.102-2.709-7.761-6.869-13.03-7.02-5.04.18-9.85 1.949-14.59 3.51 1.32 6.729 2.26 13.68 4.91 20.039.26 5.141 1.949 10.07 3.34 14.99.57 2.609 2.649 5.051 5.56 4.789 5.722-.049 11.552-2.078 15.9-5.818 3.07-2.602 3.67-6.74 5.32-10.182.908 4.221.938 8.541.979 12.852-11.979 3.648-24.39 5.58-36.53 8.58-1.26.27-2.52.148-3.76.029 1.75-.979 3.641-1.699 5.28-2.859 1.82-1.65.76-4.33.91-6.439-3.021-11.07-4.83-22.49-8.972-33.229-2.318-.48-4.658-.932-6.948-1.512 3.381-1.699 7.231-1.83 10.851-2.709zM419.25 921.5c7.85 1.021 15.72 1.84 23.57 2.85 3.6.682 7.33 1.811 10.04 4.41 4.229 3.971 4.14 11.66-.28 15.461-2.53 2.619-6.38 2.77-9.73 3.439 1.75 1.58 3.67 3.02 5.15 4.9 3.61 5.139.68 12.34 4.68 17.309 1.851 1.701 4.32 2.49 6.41 3.861-3.75.109-7.47-.611-11.12-1.361-1.609-.398-3.729-.699-4.229-2.58-1.12-5.439-.45-11.109-1.681-16.52-1.55-5.66-8.279-6.57-13.239-6.5-.95 5.961-2.07 11.971-2.101 18.01.48 3.42 4.46 3.68 6.92 5.061-4.279.57-8.46-.77-12.699-1.109-3.101-.67-6.54-.311-9.271-2.17 2.38-.602 5.89.58 7.26-2.17 1.61-2.939 1.71-6.41 2.261-9.65.869-9.049 3.02-17.99 3.199-27.09.391-3.109-3-4.039-5.22-4.949l.08-1.202zM564.89 923.299c4.892-.77 9.83-1.148 14.74-1.869 0 .318.021.939.03 1.25-2.021.76-4.5 1.02-5.8 2.949-.95 2.529-.432 5.33-.37 7.98.8 9.859 1.68 19.738 3.31 29.52.63 3.42 4.8 2.92 7.352 3.59-3.091 1.59-6.66 1.49-10.03 1.791-1.87.049-3.73.09-5.58.141 2.46-6.801 1.03-14.07.38-21.041-.93-6.279-1.1-12.629-1.58-18.939-1.229.789-2.569 1.779-2.31 3.449-4.392 12.939-9.45 25.682-12.95 38.92-2.53-2.469-3.93-5.77-5.91-8.629-6.29-9.371-12.06-19.102-18.86-28.109.302 8.811 1.87 17.51 2.49 26.299.61 3.471.392 7.592 3.11 10.271 1.97 1.26 4.479.84 6.7 1.32-1.95 1.34-4.42 1.26-6.66 1.648-4.08.289-8.07 1.49-12.182 1.381 1.99-1.41 4.592-1.82 6.302-3.609 1.66-2.701 1.198-6.021.93-9.012-1.08-7.949-1.729-15.949-2.53-23.92-.34-2.699-1.02-5.67-3.318-7.369-1.92-.83-4.03-1.029-6.012-1.609 4.642-2.271 10.12-1.18 15.08-2.35 3.512 5.469 7.021 10.938 10.75 16.27 3.65 5.209 6.46 11.01 10.66 15.84 4.928-11.753 8.858-23.903 12.258-36.163z"/><path d="M431.94 925.151c4.43-.111 9.29-.311 13.109 2.33 4.601 3.389 4.851 11.029.59 14.809-4.239 4.32-11.01 3.191-16.38 2.41.021-6.619 2.001-13 2.681-19.549z"/><path fill="#FFF" d="M463.7 928.28c3.95.4 8.37-.719 12.05.73 9.63 11.379 19.04 22.979 28.72 34.33-.06-9.422 1.75-18.951-.028-28.291-1.24-3.84-5.74-4.189-8.971-5.33 4.12-.988 8.391-.479 12.589-.6 2.672.1 5.562-.48 7.98.99-2.44.639-4.87 1.318-7.18 2.35-2.021 3.75-1.49 8.08-1.682 12.189-.729 10.229-.37 20.52-1.108 30.76-2.71-1.51-4.4-4.17-6.352-6.469-8.399-10.012-16.62-20.17-24.99-30.211 0 9.949-.75 20 .921 29.859.909 3.939 5.439 4.369 8.71 5.23-3.94 1.699-8.21.35-12.32.6-2.84-.24-6.021.689-8.561-.939 3.211-.68 8.08-.529 8.57-4.82 1.18-8.629.08-17.42.47-26.109.49-5.58-2.909-11.959-8.72-13.061a54.741 54.741 0 0 1-.098-1.208zM609.23 933.79c1.288-2.289 1.09-5.139 2.688-7.289.8 3.689 1.271 7.459 2.34 11.1.69 2.58 1.71 5.189 1.24 7.922-1.58-2.221-2.74-4.91-5.19-6.33-2.64-.801-5.46-.271-8.13.02a208.258 208.258 0 0 0-2.17-1.551c3.242-.533 7.082-1.062 9.222-3.872z"/><path fill="#CFCFCF" d="M565.03 932.12c-.261-1.67 1.08-2.66 2.31-3.449.48 6.311.65 12.66 1.58 18.939.65 6.971 2.08 14.24-.38 21.041 1.85-.051 3.71-.092 5.58-.141-3.59.561-7.34 1.879-10.93.689 2.02-1.24 5.068-1.391 6.06-3.83.4-1.891.14-3.83.01-5.701-1.068-8.578-1.42-17.209-2.34-25.789-.47-.439-1.41-1.32-1.89-1.759z"/><path fill="#FFF" d="M399.1 960c2.98-1.49 5.24-3.961 7.53-6.301-.09 4.271-3.25 7.66-4.55 11.609-4.2-1.209-8.46-2.189-12.69-3.219 3.29-.339 6.71-.54 9.71-2.089z"/><path fill="#CFCFCF" d="M378.61 959.62c1.75-.129 3.5-.24 5.26-.18a37.075 37.075 0 0 0 15.229.561c-3 1.551-6.42 1.75-9.71 2.09 4.23 1.029 8.49 2.01 12.69 3.221-2.83.33-5.53-.67-8.21-1.359-5.099-1.394-10.319-2.423-15.259-4.333z"/><path fill="#303030" d="M514.49 998.61c7.278-.26 14.54-.949 21.818-1.199l2.03 1.199H514.49z"/></svg>