<?xml version="1.0" encoding="utf-8"?>
<!-- Generator: Adobe Illustrator 16.0.4, SVG Export Plug-In . SVG Version: 6.00 Build 0)  -->
<!DOCTYPE svg PUBLIC "-//W3C//DTD SVG 1.1//EN" "http://www.w3.org/Graphics/SVG/1.1/DTD/svg11.dtd">
<svg version="1.1" id="Layer_1" xmlns="http://www.w3.org/2000/svg" xmlns:xlink="http://www.w3.org/1999/xlink" x="0px" y="0px"
	 width="1000px" height="998.61px" viewBox="0 0 1000 998.61" enable-background="new 0 0 1000 998.61" xml:space="preserve">
<g>
	<path fill="#D0D0D0" d="M464.58-1.39h22.87C478.52-1.11,469.62-0.27,460.7,0C461.67-0.34,463.61-1.04,464.58-1.39L464.58-1.39z"/>
	<path d="M487.45-1.39h25.16c86.06,2.09,171.5,26.75,245.18,71.34c64.979,39.11,120.86,93.19,162.1,156.83
		c32.79,50.49,56.33,106.97,68.99,165.82c6.5,30.11,10.15,60.81,11.12,91.59v28.929c-1.55,50.641-10.58,101.09-27.17,148.98
		c-25.45,73.801-68.59,141.4-124.73,195.619c-57.22,55.711-128.04,97.34-204.58,120.15c-34.868,10.398-70.898,17.049-107.21,19.539
		c-7.278,0.25-14.54,0.939-21.818,1.201h-29.03c-56.91-1.721-113.58-12.99-166.65-33.682
		c-72.83-28.25-138.74-73.971-190.879-132.109C74.01,772.969,34.82,699.889,15.18,621.75C5.98,585.59,1.01,548.389,0,511.11v-25.04
		c0.27-8.94,1.14-17.86,1.39-26.811c6.17-79.52,31.71-157.45,74.05-225.07c41.14-66.01,97.88-122.21,164.29-162.7
		C306.38,30.66,382.78,6.04,460.7,0C469.62-0.27,478.52-1.11,487.45-1.39L487.45-1.39z"/>
	<path fill="#FFFFFF" d="M387.58,92.94c39.2-10.11,79.87-15.19,120.35-13.27c33.552,1,66.83,6.92,99.07,16.13
		c-5.7,0.85-11.43,1.48-17.19,1.63l-0.6,0.38c-8.4,0.38-16.75,1.3-25.12,1.93c-36.979,2.33-74.109,2.34-111.09,0.07
		C431.16,97.95,409.29,96.02,387.58,92.94L387.58,92.94z"/>
	<path fill="#FFFFFF" d="M350.49,107.66c23.029,3.48,45.979,7.57,69.08,10.52c18.04,2.44,36.17,4.64,54.39,4.83
		c13.35,0.59,26.72,0.5,40.08,0.25c22.41,0.32,44.71-2.39,66.89-5.32c16.881-2.37,33.722-5.01,50.5-8.01
		c-1.358,22.19-0.97,44.44-0.63,66.65c1.4,37.66,0.61,75.35,0.97,113.03c0.132,5.31-0.328,10.65,0.32,15.93
		c-0.01,14.69,0.38,29.38,1.101,44.05c-0.439,13.52-0.739,28.04-8.279,39.81c-9.21,12.91-22.4,22.44-36.352,29.69
		c-15.488,7.891-31.398,14.9-47.328,21.83c-13.642,5.83-27.33,11.6-41.312,16.58c-3.93,1.27-7.82,2.85-11.93,3.38
		c-4.851-0.68-9.4-2.7-14.01-4.31c-22.11-8.59-43.681-18.521-65.11-28.681c-15.55-7.569-31.54-15.029-44.39-26.859
		c-5.15-4.92-10.25-10.08-13.721-16.36c-4.569-8.61-5.52-18.52-6.09-28.09c-0.52-15.36,1.61-30.66,1.66-46.01
		c0.54-25.33,1.439-50.65,1.479-76c0.79-13.32,0.33-26.69,1.351-40C350.22,165.61,351.55,136.63,350.49,107.66L350.49,107.66z"/>
	<path fill="#FFFFFF" d="M149.23,273.06c42.18-70.12,106.32-126.82,181.27-159.72c0.24,39.08-2.82,78.07-3.29,117.14
		c-0.13,2.71-0.41,5.41-0.4,8.13c-0.079,29.34-1.149,58.65-1.569,87.98c-0.71,11.01-0.37,22.08-1.49,33.07
		c-0.31,11.33-1.64,22.66-0.55,33.99c0.55,12.15,2.609,24.85,9.53,35.14c10.479,14.55,24.899,25.86,40.46,34.57
		c12.35,6.75,24.97,13.01,37.829,18.75c-50.35,0.43-100.71,0.06-151.06,0.18c-56.03-0.03-112.07,0.07-168.1-0.05
		c-0.12-10.641,0.72-21.25,0.93-31.88l0.39-0.601C97.31,387.52,117.03,326.44,149.23,273.06L149.23,273.06z"/>
	<path fill="#FFFFFF" d="M672.55,121.94c65.86,33.4,122.3,85.13,160.92,148.09c32.08,52.15,52.21,111.8,57.33,172.84l0.38,0.61
		c0.74,12.93,1.722,25.85,1.44,38.81c-52.53,0-105.05,0-157.58,0c-48.7-0.11-97.41,0.229-146.101-0.17
		c25.761-11.391,52.791-23.13,71.561-44.99c9.12-9.479,12.86-22.66,14.1-35.45c2.42-21.32-0.608-42.71-0.22-64.07
		c-0.16-9.66-0.12-19.31-0.14-28.97c-0.78-12.99-0.222-26.021-0.4-39.021c0.01-11.34,0.01-22.68,0-34.01
		C674.13,197.71,671.83,159.84,672.55,121.94L672.55,121.94z"/>
	<path d="M385.74,187.51c8.79-7.66,20.64-11.49,32.26-10.63c8.4-0.21,15.9,4.09,23.82,6c5.42-2.39,11.38-2.31,17.18-1.77
		c2.04,0.24,2.5,2.78,2.43,4.47c0.04,13.7-0.02,27.4,0.03,41.11c0.09,1.89-0.35,3.74-0.99,5.52c-4.59,0.16-9.239,0.49-13.8-0.11
		c-1.97-2.36-2.43-5.521-3.33-8.37c-2.5-9.26-5.57-18.95-12.56-25.87c-4.8-4.8-12.15-6.73-18.69-4.93
		c-6.899,1.43-12.189,7.229-14.439,13.72c-2.17,6.75-0.87,14.17,2.05,20.5c3.5,7.9,9.479,14.33,15.53,20.36
		c15.239,14.32,32.56,26.61,45.279,43.43c9.95,12.56,15.53,28.57,14.88,44.63c-0.069,15.64-6.489,31.42-18.52,41.64
		c-9.97,9.06-23.38,14.33-36.88,14.04c-10.36,0.32-20.24-3.22-30.061-6.02c-2.3,0.76-4.55,1.66-6.79,2.59
		c-3.43-0.01-6.859-0.01-10.29,0c-0.59-0.25-1.77-0.74-2.359-0.99c-0.33-1.74-0.67-3.49-0.67-5.26c0.01-15.32,0.029-30.63,0-45.94
		c-0.04-2.06,0.34-4.09,0.729-6.09c0.54-0.35,1.63-1.04,2.17-1.39c4.2,0.28,8.69-0.84,12.65,0.97c2.18,7.13,2.79,14.64,5.21,21.7
		c2.7,8.62,7.46,17.25,15.56,21.83c9.53,5.02,22.41,4.03,30.341-3.55c6.14-6.13,9.38-14.91,9.199-23.54
		c0.271-10.09-3.77-19.94-10.08-27.7c-14.189-17.45-32.83-30.4-48.609-46.26c-11.49-11.53-19.63-27.37-18.78-43.96
		C367.57,212.52,374,197.17,385.74,187.51L385.74,187.51z"/>
	<path d="M486.6,181.49c-0.31-1.87,1.62-3.34,3.351-3.18c18.08-0.09,36.18,0.01,54.27-0.05c0.512,0.32,1.53,0.96,2.05,1.28
		c0.012,3.04,0.2,6.1-0.079,9.14c-1.069,2.91-4.239,3.97-6.409,5.87c-3.07,2.32-4.34,6.31-4.12,10.04
		c0.12,47.74-0.142,95.47,0.14,143.2c0.852,6.39,2.29,13.27,7.19,17.87c5.8,5.47,14.56,6.23,22.04,4.7
		c6.488-1.27,12.13-5.84,14.75-11.91c3.43-7.44,3.77-15.8,3.608-23.86c0-43.66-0.01-87.33,0.012-130.99
		c0.238-3.79-1.562-7.67-4.82-9.68c-2.6-1.74-6.11-3.56-5.84-7.24c0.18-2.72-1.04-6.96,2.21-8.24
		c10.989-0.39,22.02-0.04,33.029-0.17c3.211,0.08,6.579-0.43,9.631,0.89c-0.03,3.47,0.528,7.06-0.33,10.46
		c-2.271,3.21-6.682,4.18-8.54,7.76c-1.182,1.85-1.5,4.06-1.46,6.22c0.01,41.35,0,82.71,0.01,124.06
		c-0.08,8.48,0.53,17.08-1.48,25.4c-2.17,10.28-7.988,19.78-16.39,26.13c-7.28,5.79-16.25,9.03-25.34,10.57
		c-16.25,1.86-33.88,0.2-47.46-9.7c-11.94-8.03-19.45-22.07-19.36-36.47c-0.01-47.39-0.069-94.78,0.03-142.16
		c-0.89-4.29-4.08-7.36-7.75-9.43C485.65,189.93,486.59,185.13,486.6,181.49L486.6,181.49z"/>
	<path fill="#FFFFFF" d="M44.1,348.45c2.52-6.34,4.41-12.99,7.39-19.11c0.12,1.92,0.08,3.84,0.04,5.76
		c3.86,4.35,9.87,5.71,15.3,6.95c8.55-0.89,17-2.98,25.2-5.57c3-0.77,4.77-3.46,6.99-5.38c-1.89,6.84-4.16,13.74-7.49,20.02
		c-0.11-2.3-0.06-4.59-0.17-6.87c-6.71-0.4-12.97,2.6-19.4,4.06c-2.78-0.06-1.07,2.28-0.36,3.42c3.17,4.49,5.85,9.46,9.8,13.32
		c3.1,1.62,4.63-2.47,6.6-4.05c-0.52,3.36-1.91,6.47-3.03,9.66c-0.98,2.62-1.75,5.42-3.58,7.62c0.01-3.1,0.82-6.45-0.96-9.26
		c-3.14-5.68-6.96-10.98-10.56-16.38c-1.73-2.83-5.1-3.71-7.98-4.89c-3.56-1.27-7.09-2.74-10.81-3.52
		c-3.35-1.15-4.49,2.93-6.06,4.98C44.79,349.02,44.33,348.64,44.1,348.45L44.1,348.45z"/>
	<path fill="#FFFFFF" d="M48.7,373.46c5.03-0.85,10.45-0.86,15.22,1.16c7.01,3.1,12.76,9.3,14.62,16.82
		c2.41,9.2-1.5,20.03-9.97,24.75c-5.2,3.34-11.68,3.939-17.66,2.829c-9.59-2.279-17.23-10.859-18.89-20.5
		C30.23,387.52,37.68,375.84,48.7,373.46L48.7,373.46z"/>
	<path d="M45.47,381.3c6.85-0.8,14.15-0.75,20.44,2.41c5.01,2.33,9.81,6.3,11.18,11.87c0.98,4.79-1.2,10.16-5.36,12.79
		c-6.08,3.87-13.83,4.439-20.67,2.46c-6.54-1.8-13.21-5.51-16.28-11.83C31.33,391.42,37.57,382.35,45.47,381.3L45.47,381.3z"/>
	<path fill="#FFFFFF" d="M67.18,432.75c3.35-0.37,3.75-4.09,5.23-6.43c0.5,6.96-1.24,13.83-1.33,20.79
		c-0.34,0.109-1.01,0.35-1.35,0.46c-0.4-1.7-0.27-3.7-1.52-5.061c-2.17-2.18-5.41-2.38-8.26-2.939c-7.59-0.98-15.23-1.811-22.9-1.61
		c-4.53-0.11-8.34,3.53-9.66,7.65c-1.23,3.83-1.47,8.06-0.49,11.97c1,3.67,4.22,6.24,7.81,7.17c7.64,1.86,15.52,2.35,23.33,3.12
		c2.79,0.05,6.11,0.1,8.22-2.04c1.27-1.22,1.38-3.09,1.88-4.67l1.37,0.05c-1.01,5.75-0.19,11.94-2.4,17.41
		c-0.62-2.061-1.21-4.11-1.91-6.13c-10.97-4.32-23.43-2.09-34.32-6.771c-4.85-2.359-6.97-8-7.27-13.08
		c-0.31-6.659,0.84-14.069,5.67-19.029c3.12-2.98,7.72-2.91,11.73-2.66C49.71,431.73,58.42,433.31,67.18,432.75L67.18,432.75z"/>
	<path fill="#D0D0D0" d="M0,462.32c0.47-1.021,0.93-2.04,1.39-3.061C1.14,468.21,0.27,477.13,0,486.07V462.32L0,462.32z"/>
	<path fill="#FFFFFF" d="M21.64,481.03c0.36-0.05,1.09-0.16,1.46-0.21c0.18,1.63,0.39,3.26,0.63,4.899
		c1.67,0.74,3.34,1.7,5.24,1.641c7,0.199,14.01-0.141,21.02-0.061c5.17-0.08,10.49,0.42,15.46-1.29c0.58-1.68,1.08-3.38,1.51-5.09
		c0.32-0.02,0.96-0.06,1.28-0.08c0.12,7.95,0.43,15.9,0.46,23.85c0.05,4.551-1.09,9.59-4.89,12.49
		c-4.4,3.801-11.93,2.66-15.17-2.119c-1.37-2.24-2.14-4.762-2.9-7.25c-1.33,2.139-2.43,4.5-4.3,6.25
		c-4.51,3.699-11.22,2.459-15.64,6.34c-2.13,1.738-2.12,4.738-2.9,7.17c-1.4-2.451-1-5.311-0.76-7.98
		c0.3-2.41-0.76-5.711,1.58-7.279c5.73-3.01,13.08-1.49,18.31-5.619c3.75-3.102,2.79-8.481,2.6-12.75
		c-5.93,0.08-11.92-0.381-17.8,0.479c-3.06,0.66-3.53,3.93-3.78,6.541c-0.29-0.27-0.88-0.801-1.17-1.07
		C21.48,493.61,21.93,487.31,21.64,481.03L21.64,481.03z"/>
	<path d="M46.41,493.94c6.66-0.21,13.33-0.07,19.99,0.01c0.98,4.8,1.98,10.509-1.33,14.66c-3.51,4.34-10.7,4.59-14.55,0.551
		C46.41,505.27,46.9,499.1,46.41,493.94L46.41,493.94z"/>
	<path fill="#FFFFFF" d="M487.16,523.559c1.51-0.52,3.01-1.289,4.66-1.289c7.529-0.189,15.069-0.221,22.6-0.42
		c0.48,39.93,0.13,79.891-0.729,119.801c-0.19,4.85,1.818,10.549,6.908,12.068c2.222,1.17,6.762,0.529,5.94,4.262
		c-8.87,0.908-17.86,0.289-26.771,0.289c-0.26-5.9-0.199-11.801-0.1-17.699c-4.61,8.559-11.8,16.789-21.76,18.76
		c-9.561,2.25-19.28-2.07-26.55-8.09c-6.57-4.971-11.53-12.111-13.551-20.121c-4.189-16.25,0.021-34.709,11.921-46.76
		c7.59-8.301,19.21-12.49,30.359-11.02c8.271,0.84,15.95,5.979,19.57,13.52c1.31-10.01,0.74-20.141,0.88-30.199
		c-0.12-8.621,0.06-17.32-1.41-25.84C497.53,525.11,489.84,527.86,487.16,523.559L487.16,523.559z"/>
	<path fill="#FFFFFF" d="M289.39,547.741c-0.12-1.961,1.33-3.08,2.78-4.08c0.63,1.209,1.59,2.459,1.35,3.949
		c-0.41,8.58-0.16,17.17-0.22,25.76c9.11,0.141,18.25-0.699,27.34,0.131c0.101,2.271-0.159,4.529-0.89,6.689
		c-8.79,0.67-17.62,0.811-26.39,1.75c-0.84,9.221-0.94,18.479-1.18,27.74c-0.54,9.26-0.59,18.58,0.53,27.811
		c0.68,4.229,2.12,8.949,6.03,11.299c5.1,3.32,11.859,2.631,17.029-0.18c2.25-0.98,4.261-2.93,6.87-2.709
		c0.801,3.18-2.25,5.209-4.3,7.01c-7.45,6.5-18.38,8.93-27.81,5.898c-6.88-2.318-10.61-9.398-11.82-16.141
		c-1.94-11.59-0.36-23.328-0.27-34.979c0.07-8.58,1-17.119,1.11-25.699c-5.25-1.221-10.7-0.541-15.99-1.352
		c-1.55,0.092-2.08-2.439-0.56-2.908c6.14-2.891,11.83-6.682,17.02-11.051C285.54,561.918,288.53,554.86,289.39,547.741
		L289.39,547.741z"/>
	<path fill="#FFFFFF" d="M762.16,546.981c-0.13-1.932,1.7-2.531,3.17-3.15c0.49,1.91,1.109,3.85,0.8,5.869
		c-0.79,7.84-0.13,15.73-0.32,23.602c7.382,0.1,14.762-0.131,22.15-0.201c1.89-0.049,3.75,0.381,5.57,0.92
		c-0.3,2.051-0.69,4.102-1.12,6.141c-8.86,0.75-17.78,0.76-26.602,1.852c-0.738,16.83-1.88,33.68-1.119,50.529
		c0.699,5.229,0.971,11.379,5.25,15.119c4.511,4.121,11.551,4.16,16.881,1.67c2.979-1.109,5.479-3.709,8.88-3.389
		c-0.44,3.988-4.05,6.289-6.892,8.6c-7.658,5.619-18.47,7.33-27.3,3.6c-7.29-3.549-10.04-12.01-10.83-19.529
		c-0.72-8.971-0.028-17.98,0.102-26.959c0.77-9.83,0.68-19.721,1.528-29.541c-5.778-1.52-11.869-0.449-17.67-1.91
		c-0.01-0.479-0.05-1.439-0.06-1.92c6.62-3.049,12.729-7.141,18.31-11.82C758.49,561.54,761.25,554.231,762.16,546.981
		L762.16,546.981z"/>
	<path fill="#FFFFFF" d="M55.53,548.11c5.36-3.109,11.86,0.301,14.83,5.1c3.42,5.15,2.76,11.811,0.99,17.432
		c1.21,0.641,2.42,1.289,3.61,1.971c-4.53,1.439-9.1,2.898-13.83,3.559c2.07-2.709,5.28-4.25,7.23-7.059
		c2.67-3.5,3.81-8.432,1.76-12.5c-2.22-4.951-10.31-6.061-13.11-1.061c-3.1,6.1-2.42,13.359-5.38,19.52
		c-2.25,4.59-7.46,7.641-12.59,6.85c-6.3-0.949-11.69-6.209-12.92-12.449c-1.33-4.801,0.15-9.721,1.73-14.25
		c-1.21-0.449-2.42-0.891-3.63-1.311c0.1-0.34,0.29-1.02,0.38-1.359c5.07-0.91,10.05-2.75,15.25-2.68
		c-0.11,0.229-0.32,0.689-0.43,0.92c-5.53,3.66-12.26,8.311-12.01,15.779c-0.48,6.359,6.27,12.32,12.46,9.939
		c5.4-1.77,6.75-7.971,7.62-12.891C48.46,557.87,49.59,550.809,55.53,548.11L55.53,548.11z"/>
	<path fill="#FFFFFF" d="M196.76,577.43c8.03-6.5,19.54-7.182,28.99-3.65c3.38,1.09,6.35,3.359,9.97,3.711
		c1.07-1.201,2.14-2.41,3.34-3.48c2.46,1.08,1.94,4.271,2.35,6.5c-0.02,6.65,1.72,13.369,0.16,19.949
		c-0.88-0.148-1.76-0.299-2.64-0.43c-2.26-6.129-4.95-12.18-8.77-17.5c-4.23-6.07-12.42-7.59-19.32-6.479
		c-5.7,0.859-11.84,5.279-11.65,11.568c-0.44,4.91,2.96,9.311,6.89,11.852c9.45,5.109,19.68,8.68,29,14.061
		c6.99,3.949,11.17,12.199,10.42,20.16c-0.74,15.1-15.53,27.438-30.47,26.18c-7.9-0.451-14.65-4.891-22.05-7.1
		c-1.66,1.949-3.26,3.979-5.14,5.738c-2.12-2.449-1.61-5.881-1.97-8.869c-0.04-6.682-0.32-13.359-0.31-20.029
		c0.32-0.762,0.96-2.281,1.28-3.041c1.12,0.779,2.33,1.721,2.72,3.131c3.09,8.479,7.64,16.869,14.87,22.51
		c7.23,5.619,18.44,5.352,24.98-1.229c4.64-4.66,5.29-12.701,1.15-17.9c-6.44-8.41-17.05-11.43-26.11-16.051
		c-5.16-2.459-10.72-5.049-13.75-10.189C184.76,597.389,187.75,583.87,196.76,577.43L196.76,577.43z"/>
	<path fill="#FFFFFF" d="M552.97,584.639c7.511-7.699,18.11-13.26,29.102-12.08c11.55,0.961,21.778,8.422,27.869,18.021
		c3.239,5.811,5.489,12.92,3.649,19.529c-3.858,0.59-7.77,0.721-11.67,0.76c-15.16,0.141-30.32,0.531-45.479,0.541
		c-2.012,11.5,0.479,24.24,8.658,32.91c5.91,6.729,15.17,9.67,23.95,8.539c8.19-1.529,14.97-6.539,20.94-12.07
		c0.64,0.121,1.91,0.371,2.55,0.49c0.07,3.66-2.83,6.32-5.229,8.689c-14.729,12.932-39.439,13.99-54.079,0.34
		C534.54,633.85,535.33,601.581,552.97,584.639L552.97,584.639z"/>
	<path fill="#FFFFFF" d="M626.48,575.661c0.618-1.18,0.89-3,2.64-2.621c7.46,0.012,14.92,0.061,22.39-0.189
		c2.12,6.221,2.11,12.82,2.972,19.271c4.77-7.871,11.81-14.85,20.75-17.65c8.68-2.658,18.698-1.471,26.34,3.512
		c7.26,5.029,8.608,14.5,8.948,22.67c0.222,14.33-0.59,28.67-0.318,43.01c0.229,2.82,0.05,6.289,2.648,8.16
		c2.592,1.818,5.762,2.459,8.67,3.629c-0.05,0.891-0.1,1.781-0.14,2.68c-10.71-1.469-21.55-1.357-32.3-0.529
		c-1.73,0.201-3.42-0.238-5.1-0.471c0.148-0.85,0.318-1.688,0.5-2.52c2.948-0.619,6.06-1.119,8.618-2.811
		c2.932-2.141,2.65-6.061,3.11-9.25c0.57-9.301,0.51-18.631,0.67-27.939c-0.07-7.75-0.06-15.66-2.58-23.08
		c-1.74-5.279-5.99-9.869-11.39-11.439c-7.392-2.24-15.392,1.539-20.102,7.279c-6.34,7.189-8.608,16.852-9.948,26.09
		c-1.17,9.682-1.521,19.461-0.96,29.191c0.5,3.83,0.329,8.809,4.29,10.92c2.729,1.908,7.85,0.299,8.52,4.6
		c-6.89,0.551-13.79-0.35-20.69-0.141c-5.81-0.1-11.618,0.449-17.408-0.061c-0.092-0.641-0.28-1.92-0.38-2.561
		c3.898-1.959,10.47-1.469,11.658-6.729c1.98-10.211,1.512-20.682,1.802-31.021c-0.08-9.049,0.31-18.109-0.4-27.141
		c-0.51-3.43-0.86-7.18-3.24-9.898C633.69,577.661,629.7,577.219,626.48,575.661L626.48,575.661z"/>
	<path fill="#FFFFFF" d="M333.32,577.68c0-1.08,0.02-2.15,0.069-3.211c7.61-0.391,15.24-0.148,22.87-0.189
		c0.521,20.49,0.44,40.98,1.49,61.451c0.27,6.34,3.8,12.67,9.7,15.359c4.22,1.979,9.21,1.1,13.2-1.041
		c6.51-3.561,11.699-9.398,14.59-16.229c1.99-8.23,1.939-16.762,2.18-25.17c0.061-7.721,0.14-15.441-0.189-23.16
		c-0.551-1.781-0.721-3.771-1.921-5.26c-2.529-2.08-5.949-2.092-9.04-2.512c-0.01-1.1,0-2.189,0.03-3.27
		c8.29-0.371,16.601-0.141,24.9-0.15c1.37,22.061-0.061,44.16,0.109,66.24c0.091,3.33,0.15,6.85,1.74,9.879
		c1.66,3,5.391,3.221,8.34,4.07c0.09,0.84,0.181,1.689,0.28,2.541c-5.74,1.629-11.78,0.561-17.66,0.889
		c-2.46-0.139-6.05,0.65-7.27-2.18c0.41-5.129,0.729-10.279,0.38-15.43c-6.42,6.779-13.061,14.02-22.18,17.061
		c-8.681,3.119-19.78,2.799-26.421-4.371c-4.409-4.26-4.93-10.709-5.22-16.479c-1.05-10.619-0.91-21.32-1.14-31.98
		c-0.82-8.379,0.13-16.84-0.851-25.209C338.73,578.389,336.03,577.991,333.32,577.68L333.32,577.68z"/>
	<path d="M565.06,583.629c4.132-4.24,9.69-7.939,15.87-7.471c11.53,0.92,20.262,13.65,17.32,24.781c-1.21,2.85-4.14,4.639-7.13,5.08
		c-11.57,1.719-23.29,0.58-34.91,0.158C557.54,598.209,559.43,589.77,565.06,583.629L565.06,583.629z"/>
	<path d="M471.33,578.081c7.03-1.92,15.29-0.551,20.67,4.58c4.17,4.209,6.23,10.049,7.23,15.789
		c1.77,11.352,1.289,23.09-1.341,34.271c-1.79,8.148-7.43,15.279-14.939,18.898c-4.49,2.131-9.99,2.051-14.36-0.318
		c-5.83-3.109-10.38-8.512-12.43-14.791c-3.17-9.279-2.96-19.26-2.44-28.908c0.74-7.812,2.271-15.932,7.011-22.381
		C463.28,581.68,467.11,579.151,471.33,578.081L471.33,578.081z"/>
	<path fill="#FFFFFF" d="M62.74,582.62c4.07-1.09,8.28-1.459,12.47-1.639c2.56,12.279,4.96,24.609,8.48,36.658
		c0.81,2.852,2.06,5.66,2.04,8.67c-3.54,1.391-7.2,2.531-10.89,3.451c1.11-3.859,5.39-5.98,5.84-10.121
		c0.36-4.049-0.33-8.141-1.59-11.971c-6.31,0.391-12.37,2.422-18.51,3.791c-6.41,1.77-13.06,2.971-19.13,5.729
		c-3.65,2.051-1.54,6.58-2.33,9.891c-3.19-7.67-4.22-16.049-6.41-24.029c0.32-0.01,0.97-0.039,1.3-0.061
		c0.86,1.859,1.25,4.291,3.22,5.359c2.01,1.48,4.63,0.871,6.86,0.42c11.24-2.52,22.46-5.199,33.41-8.789
		c-1.08-4.619-2-9.84-5.86-13.029C69.15,584.62,65.57,584.36,62.74,582.62L62.74,582.62z"/>
	<path fill="#FFFFFF" d="M85.44,628.87c0.37,0.131,1.11,0.381,1.48,0.51c2.01,6.602,5.47,12.762,6.79,19.57
		c-2.16-1.648-3.51-5.109-6.66-4.729c-3.56,0.141-6.87,1.619-10.2,2.738c-5.89,2.25-11.88,4.33-17.45,7.32
		c-4.37,2.189-6.57,7.711-5.16,12.35c0.75,3.393,2.17,6.711,4.33,9.451c2.46,2.9,6.65,4.311,10.34,3.369
		c6.94-1.5,13.54-4.229,20.18-6.67c3.54-1.549,7.92-3.07,9.17-7.16c-0.17-1.559-0.55-3.08-0.84-4.6c0.39,0.061,1.18,0.189,1.57,0.26
		c1.7,5.439,4.69,10.531,5.5,16.221c-1.4-1.41-2.58-3.041-4.17-4.221c-2.06-0.629-4.25-0.16-6.25,0.439
		c-8.69,2.65-16.99,6.779-26.03,8.17c-6.01,1.051-11.32-3.27-14.14-8.189c-3.07-5.459-5.19-11.898-3.93-18.199
		c0.83-4.471,4.97-7.199,8.9-8.801c7.42-2.949,15.08-5.289,22.28-8.789c1.6-0.84,3.29-1.689,4.41-3.141
		C86.12,632.821,85.6,630.821,85.44,628.87L85.44,628.87z"/>
	<path fill="#FFFFFF" d="M324.35,679.889c0.141-1.5,0.41-4.148,2.641-3.699c8.029-0.051,16.05,0.479,24.08,0.711
		c7.21,0.209,14.58-1.871,21.67-0.021c-0.08,0.98-0.15,1.971-0.23,2.971c-2.96,0.619-6.31,0.6-8.75,2.631
		c-2.43,1.908-3.31,5.039-3.88,7.949c-1.63,9.619-1.479,19.42-1.59,29.148c0.09,9.48-0.29,19.07,1.729,28.391
		c1.58,7.262,7.87,12.771,14.891,14.641c7.37,1.891,15.41,1.971,22.57-0.82c6.489-2.85,9.989-9.689,11.329-16.318
		c1.99-10.82,1.96-21.881,1.99-32.842c-0.05-7.92,0.37-16-1.79-23.709c-0.81-2.561-2.16-5.1-4.479-6.568
		c-2.601-1.393-5.61-1.58-8.38-2.48c0.1-1.201,0.22-2.381,0.369-3.561c5.511-0.561,10.961,0.75,16.471,0.6
		c5,0.15,9.96-0.859,14.96-0.76c1.93-0.35,2.939,1.26,3.91,2.6c-2.65,1.861-6.19,1.812-8.681,3.951
		c-2.81,2.279-3.96,5.939-4.529,9.379c-1.091,9.141-0.94,18.361-1.08,27.551c-0.09,11.32,0.71,22.961-2.83,33.891
		c-2.34,7.27-8.41,12.859-15.3,15.83c-9.221,4.119-19.53,4.221-29.431,3.721c-9.66-0.771-20.45-2.76-26.85-10.76
		c-5.74-6.82-5.67-16.281-5.521-24.701c0.021-12.66,0.19-25.32,0.15-37.99c-0.16-5.289-0.08-10.949-2.71-15.709
		C332.6,680.549,327.92,681.129,324.35,679.889L324.35,679.889z"/>
	<path fill="#FFFFFF" d="M435.29,680.081c-0.83-1.93,0.26-4.271,2.62-3.76c8.52,0.5,17.05,0.488,25.59,0.609
		c18.55,21.16,37.32,42.16,56.94,62.34c0.21-13.01,0.29-26.029,0.118-39.039c-0.289-5.361-0.318-11.781-4.858-15.48
		c-3.44-3.061-8.2-3.35-12.41-4.631c0.01-1.049,0.03-2.09,0.06-3.119c3.49-1,7.062,0.102,10.602,0.07
		c7.97,0.068,15.97,0.318,23.91-0.541c1.63-0.289,3.229,0.189,4.8,0.57c-0.01,0.971-0.03,1.949-0.04,2.939
		c-3.96,1.23-8.45,1.539-11.602,4.539c-3.25,2.641-3.77,7.07-4.14,10.961c-0.32,9.369,0.26,18.75,0,28.119
		c1.08,13.66-0.35,27.33-0.14,41c-0.45,2.771,0.87,6.371-1.54,8.461c-2.49,0.5-4.07-1.66-5.67-3.121
		c-14.87-15.5-29.11-31.568-43.34-47.648c-4.98-5.801-10.181-11.41-14.87-17.439c-0.82,8.891-0.44,17.82-0.521,26.73
		c-0.069,8.77-0.03,17.6,1.22,26.289c0.99,6.16,7.24,9.631,12.961,10.26c1.27,0.229,4.319,0.35,3.38,2.5
		c0.35,1.84-2.16,1.58-3.28,1.721c-10.67-0.689-21.44-1.061-32.08,0.299c-1.49,0.23-2.98-0.059-4.43-0.299
		c-0.28-0.541-0.83-1.621-1.101-2.16c2.181-2.59,5.75-1.91,8.67-2.77c2.78-0.592,5.46-2.342,6.53-5.062
		c1.86-4.357,1.95-9.188,1.97-13.85c-0.01-15.709,0.061-31.42-0.38-47.119c-1.24-6.689-4.359-13.221-9.84-17.439
		C441.79,681.85,438.32,681.389,435.29,680.081L435.29,680.081z"/>
	<path fill="#FFFFFF" d="M550.5,677.03c5.48-0.549,10.99,0.061,16.49,0.15c10.16,0.391,20.33-0.66,30.49-0.199
		c0.09,1.02,0.18,2.059,0.278,3.1c-3.51,1.34-7.99,0.721-10.76,3.6c-3.1,5.012-2.5,11.15-3.08,16.779
		c-0.439,12.371-0.271,24.762-0.01,37.141c0.89,8.98-0.34,18.4,2.88,27.012c1.33,3.639,5.689,3.729,8.93,4.129
		c0.971,0.4,3.261,0,2.62,1.801c0.36,2.23-2.72,2.709-4.35,2.59c-8.972-0.189-17.92-1.42-26.91-0.961
		c-5.59-0.129-11.101,1.211-16.69,0.842c-0.06-1.211-0.09-2.41-0.09-3.602c3.182-0.74,6.74-0.949,9.352-3.129
		c1.658-1.352,2.158-3.541,2.58-5.521c1.229-9.318,1.06-18.738,1.229-28.119c-0.13-14.73,0.47-29.521-1.29-44.17
		c-0.52-2.211-0.97-4.791-2.99-6.121c-2.79-1.279-5.898-1.43-8.81-2.27C550.4,679.049,550.44,678.03,550.5,677.03L550.5,677.03z"/>
	<path fill="#FFFFFF" d="M630.43,684.12c8.91-6.119,19.87-8.799,30.602-8.359c14.63-0.229,29.7,6.029,38.488,18
		c7.012,9.029,10.24,20.631,9.682,31.99c-1.21,16.42-11,31.449-24.72,40.279c-9.57,6.15-21.302,8.4-32.541,7.34
		c-13.399-0.729-26.341-7.49-34.721-17.949c-8.318-10.529-10.568-24.75-8.608-37.76C610.5,703.94,619.19,691.87,630.43,684.12
		L630.43,684.12z"/>
	<path fill="#FFFFFF" d="M716.62,679.799c-0.78-2.229,1.18-3.869,3.31-3.479c8.4,0.619,16.82,0.439,25.24,0.58
		c16.71,19.148,33.71,38.049,51.23,56.469c1.8,2.021,3.76,3.891,5.8,5.682c0.18-8.48-0.09-16.971,0.18-25.461
		c-0.01-7.631,0.34-15.359-1.24-22.881c-0.93-3.859-4.09-6.85-7.67-8.318c-2.83-1.051-5.87-1.391-8.688-2.432
		c0-0.93,0.01-1.84,0.028-2.75c3.63-1.449,7.45,0.012,11.21-0.119c7.99,0.039,16.012,0.301,23.961-0.59
		c1.609-0.25,3.171,0.41,4.729,0.729c0.271,4.41-4.729,3.48-7.51,4.689c-4.96,1.58-8.16,6.361-8.46,11.451
		c-0.5,11.379,0.14,22.789-0.021,34.18c0.19,13.689-0.148,27.381-0.3,41.08c0.061,1.641-0.65,3.16-1.18,4.689
		c-3.78,0.051-5.761-3.439-8.23-5.67c-16.67-17.391-32.5-35.551-48.42-53.609c-2.358-2.699-4.74-5.391-6.688-8.391
		c-0.461-1.25-1.802-0.439-2.58-0.119l1.528,0.299c-0.619,11.59-0.1,23.23-0.278,34.852c-0.19,6.068,0.488,12.109,1.13,18.141
		c2.188,6.459,9.17,9.609,15.6,9.629c0.33,0.67,0.67,1.352,1.03,2.041c-0.43,0.619-0.84,1.25-1.24,1.889
		c-12.58-0.5-25.24-1.188-37.76,0.66c-1.08-0.939-2.021-2.029-1.771-3.561c4.21-2.359,10.052-0.84,13.472-4.85
		c2.72-3.711,3.02-8.58,3.318-13.02c0.2-15.711-0.119-31.41-0.18-47.121c-0.58-7.859-3.84-15.91-10.34-20.68
		C723.12,681.69,719.56,681.418,716.62,679.799L716.62,679.799z"/>
	<path fill="#FFFFFF" d="M106.43,684.139c-0.42-1.879-0.82-3.77-0.62-5.689c3.01,4.66,4.76,10.01,7.77,14.689
		c4.65,7.641,8.81,16.859,6.06,25.932c-3.67,13.398-20.75,20.789-33.02,14.199c-8.18-4.25-11.61-13.32-15.31-21.18
		c-2.23-4.682-5.33-8.922-7.33-13.711c2.66,1.631,4.29,5.801,7.98,4.82c6.86-2.271,13.06-6.102,19.54-9.23
		C96.77,691.209,102.68,688.991,106.43,684.139L106.43,684.139z"/>
	<path d="M653.6,681.411c5.062-1.041,10.62-0.621,15.102,2.129c7.6,4.41,11.898,12.82,13.858,21.121
		c2.381,9.469,2.23,19.32,1.802,29c-0.9,8.82-2.521,18.141-8.2,25.27c-4.63,6.23-12.352,10.541-20.271,9.352
		c-9.93-0.932-16.8-9.791-19.79-18.641c-4.539-13.771-4.51-28.771-2.028-42.939C636.12,695.991,642.32,684.37,653.6,681.411
		L653.6,681.411z"/>
	<path d="M108.14,692.75c0.69-0.189,2.08-0.561,2.78-0.75c4.08,5.629,7.26,12.65,5.53,19.75c-3.66,11.98-17.43,19.811-29.58,16.619
		c-6.5-1.5-10.82-7.609-12.31-13.789c-0.69-4.461,3.62-6.871,6.93-8.631C90.29,701.389,99.15,696.918,108.14,692.75L108.14,692.75z"
		/>
	<path fill="#FFFFFF" d="M131.07,724.241c3.77,4.41,6.48,9.609,10.06,14.17c3.89,5.66,8.41,10.891,11.91,16.799
		c-2.62,2.842-5.29,5.641-8.17,8.221c1.18-4.83,3.16-10,1.3-14.92c-2.16-4.35-5.18-8.27-8.68-11.609
		c-5.771,2.551-10.58,6.961-15.72,10.59c1.97,2.771,3.83,5.971,7.02,7.51c2.63,0.441,5.25-0.229,7.81-0.779
		c-0.1,0.32-0.32,0.971-0.42,1.301c-5.39,2.68-9.55,7.221-14.89,9.939c1.35-2.541,3.85-4.801,3.58-7.898
		c-0.23-3.32-2.32-6.15-4.25-8.721c-3.29,1.09-5.76,3.84-8.64,5.709c-3.18,2.48-8.22,5.291-6.41,10.141
		c2.26,5.02,6.06,9.49,10.87,12.221c3.69,2.24,8.07,1.311,12.13,1.289c-3.42,2.691-7.68,3.92-11.6,5.691
		c-5.2-7.16-10.54-14.223-15.38-21.631c-2.53-4.021-5.8-7.561-7.83-11.869c2.05,1.238,3.6,3.639,6.09,3.93
		c3.9-0.852,7-3.602,10.21-5.811c7.48-5.779,15.79-10.682,22.29-17.609C131.77,728.7,131.27,726.491,131.07,724.241L131.07,724.241z
		"/>
	<path fill="#FFFFFF" d="M156.17,760.709c3.36,0.68,4.82,4.33,7.18,6.48c1.31,1.068,1.7,2.699,1.25,4.318
		c-2.22,14.119-4.02,28.291-6.11,42.42c5.94-4.279,11.31-9.26,16.81-14.068c1.93-1.811,4.11-3.58,5.03-6.15
		c0.83-3.301-1.5-6-2.53-8.92c5.07,4.449,9.53,9.619,13.58,15c-3.19-1.35-6.69-4.521-10.21-2.109
		c-10.63,7.971-19.92,17.67-30.79,25.311c1.65-15.939,4.81-31.701,6.55-47.641c-7.43,6.609-15.4,12.811-21.55,20.689
		c-2.55,3.189,0.38,6.869,1.76,9.879c-3.14-1.578-4.88-4.76-7.22-7.229c-2.15-2.66-5.14-4.859-6.11-8.279
		c1.76,1.209,3.21,2.92,5.19,3.789c2.88,0.73,5.32-1.439,7.41-3.07c5.98-5.43,12.05-10.76,17.89-16.35
		c3.41-3.051,3.96-7.939,3.36-12.24C157.28,762.081,156.54,761.161,156.17,760.709L156.17,760.709z"/>
	<path fill="#FFFFFF" d="M184.35,809.11c2.12-3.551,5.9-5.57,8.86-8.32c11.1,10.611,21.86,21.641,33.94,31.182
		c-1.85,3.6-4.56,6.68-7.38,9.539c-0.33-3.02,0.76-5.979,0.47-8.971c-0.771-5.311-5.38-8.719-8.98-12.199
		c-7.34,6.91-13.99,14.51-20.69,22.039c-2.09,2.58-4.51,4.98-5.89,8.062c-0.62,3.369,2.5,5.568,4.17,8.09
		c-3.45-1.15-5.66-4.281-8.35-6.541c-3.44-3.43-7.23-6.51-10.48-10.119c3.03,0.9,5.75,3.539,9.12,2.279
		c2.91-1.811,5.03-4.57,7.43-6.949c6.78-6.939,13.14-14.271,19.32-21.74c-3.02-3.26-6.33-6.689-10.8-7.801
		C191.43,806.53,187.87,808.331,184.35,809.11L184.35,809.11z"/>
	<path fill="#FFFFFF" d="M227.63,872.741c2.21-9.451,10.51-17.301,20.24-18.432c7.64-0.85,15.87,1.5,21.26,7.16
		c2.69,2.59,4.56,5.84,6.68,8.891c0.95-0.039,2.85-0.119,3.8-0.16c-1.81,3.92-3.93,7.689-5.69,11.65
		c-0.33,0.051-0.99,0.148-1.32,0.199c0.36-5.359,0.83-11.131-1.95-15.979c-3.27-6.67-11.54-10.371-18.64-7.971
		c-11.61,3.561-20.36,16.25-17.97,28.439c1.23,7.529,8.22,14.08,16.08,13.43c5.15-0.658,7.35-5.93,9.02-10.18
		c1.1-3.67-2.99-5.57-5.04-7.801c2.29-0.129,3.98,1.59,5.83,2.66c4.47,3.09,9.48,5.381,13.65,8.9c-2.54-0.25-5.05-0.73-7.6-0.779
		c-2.62,3.34-4.49,7.25-7.4,10.35c-8.1,0.27-16.67-1.82-22.81-7.35C229.23,890.231,225.92,881.168,227.63,872.741L227.63,872.741z"
		/>
	<path fill="#FFFFFF" d="M709.79,874.28c2.24-1.24,4.39-2.699,6.85-3.469c2.302,3.039,4.17,6.379,5.99,9.729
		c-3.8-0.41-6.688-3.67-10.61-3.52c-4.188,0.068-7.96,2.309-11.648,4.059c-0.602,1.58,0.75,3.221,1.24,4.721
		c4.92,10.012,9.6,20.211,15.619,29.619c2.271,3.643,6.899,1.531,10.069,0.5c-1.46,2.73-4.85,3.211-7.31,4.691
		c-5,2.109-9.521,5.479-14.852,6.699c1.94-2.061,5.29-3.432,5.46-6.609c0.16-3.109-1.729-5.791-2.89-8.521
		c-4.5-9.35-9.21-18.609-14.51-27.529c-4.44,1.811-9.21,4.061-11.602,8.449c-1.528,2.65-1.46,5.779-1.449,8.75
		c-0.319,0.051-0.96,0.131-1.279,0.182c-1.38-3.551-2.66-7.131-3.76-10.76C686.73,885.75,698.62,880.709,709.79,874.28
		L709.79,874.28z"/>
	<path fill="#FFFFFF" d="M298.64,881.799c8.58-0.859,17.64,3.602,21.69,11.32c2.86,5.689,3.81,12.549,1.53,18.619
		c-4.28,13.051-20.96,20.641-33.39,14.311c-6.59-2.949-11.34-9.369-12.31-16.52C273.91,896.1,285.12,882.51,298.64,881.799
		L298.64,881.799z"/>
	<path d="M298.37,885.161c6.78-3.66,15.95,0.879,17.49,8.33c2.899,12.51-4.53,26.818-16.38,31.77c-8.08,3.391-17.47-4.26-17-12.689
		C282.83,901.709,288.07,889.918,298.37,885.161L298.37,885.161z"/>
	<path fill="#FFFFFF" d="M665.79,895.299c2.63-0.93,5.24-2.311,8.1-2.039c-2.6,2.08-7.06,4.189-5.97,8.279
		c3.67,12.801,9.04,25.09,12.59,37.939c-3.62-1.16-6.729-3.369-10.028-5.16c-10.75-5.859-21.16-12.311-32.03-17.93
		c3.35,9.01,6.33,18.238,11.02,26.68c1.602,3.1,5.53,3.59,8.53,2.381c0.4,0.01,1.21,0.039,1.62,0.049
		c-0.32,0.371-0.97,1.111-1.29,1.471c-6.13,1.881-11.95,4.932-18.311,6c2.08-1.77,4.479-3.1,6.54-4.891
		c0.21-5.568-2.54-10.559-4.381-15.639c-2.18-5.23-3.688-10.762-6.358-15.762c-2.61-4.17-7.45-5.77-12.13-5.891
		c3.75-1.83,7.77-2.979,11.64-4.529c13.03,7.57,26.229,14.84,39.38,22.199c-2.77-8.529-5.359-17.199-9.24-25.289
		c-2.188-4.148-7.17-3.1-10.979-2.881C657.96,898.02,661.96,896.799,665.79,895.299L665.79,895.299z"/>
	<path fill="#FFFFFF" d="M328.55,894.12c6.78,2.771,13.99,4.57,20.42,8.102c-1.989,0.061-3.989-0.121-5.979,0.029
		c-3.66,3.359-2.49,8.939-2.79,13.391c-0.59,7.17-0.36,14.369-0.41,21.561c0.3-0.031,0.9-0.08,1.2-0.109
		c5.78-7.07,11.88-13.881,17.58-21.021c1.359-1.979,3.319-4,2.85-6.6c-1.3-1.551-2.939-2.762-4.38-4.16
		c5.48,0.67,10.37,3.59,15.62,5.141c0.07,0.35,0.2,1.061,0.26,1.41c-1.97,0.039-4.05-0.41-5.92,0.379
		c-3.59,2.041-6.16,5.359-8.9,8.371c-7.3,8.529-14.449,17.229-22.1,25.449c-0.58,0.061-1.72,0.189-2.29,0.25
		c0.09-14.26,0.04-28.521-0.39-42.771c0-3.439-1.65-6.648-4.86-8.1C328.48,895.11,328.53,894.45,328.55,894.12L328.55,894.12z"/>
	<path fill="#FFFFFF" d="M374.53,910.76c3.859,0.43,7.45,1.979,11.17,2.971c8.37,2.289,16.8,4.328,25.18,6.549
		c-0.06,3.73-0.21,7.48-0.54,11.211c-0.32-0.09-0.95-0.271-1.27-0.361c-1.5-4.438-3.57-9.42-8.17-11.398
		c-4.391-1.789-9.091-2.99-13.851-2.98c-1.79,5.91-3.58,11.83-4.81,17.891c3.21,0.621,6.479,2.102,9.79,1.24
		c2.76-1.068,3.72-4.471,6.58-5.318c-1.86,5.639-3.561,11.357-4.551,17.238c-0.329,0.119-0.979,0.342-1.31,0.461
		c-0.23-2.602,0.16-5.541-1.69-7.641c-2.38-2.621-6.069-3.371-9.35-4.189c-1.49,5.75-3.39,11.461-3.94,17.398
		c0.381,3.191,3.45,4.59,6.101,5.611c-1.76-0.062-3.51,0.049-5.26,0.18c-4.98-1.381-9.92-2.939-14.98-4
		c-0.18-0.34-0.53-1.029-0.7-1.371c2.07,0.051,4.15,0.08,6.23,0.021c1.99-2.83,3.14-6.109,3.939-9.449
		c2.19-9.09,4.99-18.041,6.45-27.291C380.34,914.11,375.95,913.26,374.53,910.76L374.53,910.76z"/>
	<path fill="#FFFFFF" d="M592.17,918.09c8.71-1.932,17.36-4.16,26.04-6.25c1.75,3.658,3.55,7.328,4.74,11.229
		c-4.102-2.709-7.761-6.869-13.03-7.02c-5.04,0.18-9.85,1.949-14.59,3.51c1.32,6.729,2.26,13.68,4.91,20.039
		c0.26,5.141,1.949,10.07,3.34,14.99c0.57,2.609,2.649,5.051,5.56,4.789c5.722-0.049,11.552-2.078,15.9-5.818
		c3.07-2.602,3.67-6.74,5.32-10.182c0.908,4.221,0.938,8.541,0.979,12.852c-11.979,3.648-24.39,5.58-36.53,8.58
		c-1.26,0.27-2.52,0.148-3.76,0.029c1.75-0.979,3.641-1.699,5.28-2.859c1.82-1.65,0.76-4.33,0.91-6.439
		c-3.021-11.07-4.83-22.49-8.972-33.229c-2.318-0.48-4.658-0.932-6.948-1.512C584.7,919.1,588.55,918.969,592.17,918.09
		L592.17,918.09z"/>
	<path fill="#FFFFFF" d="M419.25,921.5c7.85,1.021,15.72,1.84,23.57,2.85c3.6,0.682,7.33,1.811,10.04,4.41
		c4.229,3.971,4.14,11.66-0.28,15.461c-2.53,2.619-6.38,2.77-9.73,3.439c1.75,1.58,3.67,3.02,5.15,4.9
		c3.61,5.139,0.68,12.34,4.68,17.309c1.851,1.701,4.32,2.49,6.41,3.861c-3.75,0.109-7.47-0.611-11.12-1.361
		c-1.609-0.398-3.729-0.699-4.229-2.58c-1.12-5.439-0.45-11.109-1.681-16.52c-1.55-5.66-8.279-6.57-13.239-6.5
		c-0.95,5.961-2.07,11.971-2.101,18.01c0.48,3.42,4.46,3.68,6.92,5.061c-4.279,0.57-8.46-0.77-12.699-1.109
		c-3.101-0.67-6.54-0.311-9.271-2.17c2.38-0.602,5.89,0.58,7.26-2.17c1.61-2.939,1.71-6.41,2.261-9.65
		c0.869-9.049,3.02-17.99,3.199-27.09c0.391-3.109-3-4.039-5.22-4.949C419.19,922.401,419.23,921.799,419.25,921.5L419.25,921.5z"/>
	<path fill="#FFFFFF" d="M564.89,923.299c4.892-0.77,9.83-1.148,14.74-1.869c0,0.318,0.021,0.939,0.03,1.25
		c-2.021,0.76-4.5,1.02-5.8,2.949c-0.95,2.529-0.432,5.33-0.37,7.98c0.8,9.859,1.68,19.738,3.31,29.52
		c0.63,3.42,4.8,2.92,7.352,3.59c-3.091,1.59-6.66,1.49-10.03,1.791c-1.87,0.049-3.73,0.09-5.58,0.141
		c2.46-6.801,1.03-14.07,0.38-21.041c-0.93-6.279-1.1-12.629-1.58-18.939c-1.229,0.789-2.569,1.779-2.31,3.449
		c-4.392,12.939-9.45,25.682-12.95,38.92c-2.53-2.469-3.93-5.77-5.91-8.629c-6.29-9.371-12.06-19.102-18.86-28.109
		c0.302,8.811,1.87,17.51,2.49,26.299c0.61,3.471,0.392,7.592,3.11,10.271c1.97,1.26,4.479,0.84,6.7,1.32
		c-1.95,1.34-4.42,1.26-6.66,1.648c-4.08,0.289-8.07,1.49-12.182,1.381c1.99-1.41,4.592-1.82,6.302-3.609
		c1.66-2.701,1.198-6.021,0.93-9.012c-1.08-7.949-1.729-15.949-2.53-23.92c-0.34-2.699-1.02-5.67-3.318-7.369
		c-1.92-0.83-4.03-1.029-6.012-1.609c4.642-2.271,10.12-1.18,15.08-2.35c3.512,5.469,7.021,10.938,10.75,16.27
		c3.65,5.209,6.46,11.01,10.66,15.84C557.56,947.709,561.49,935.559,564.89,923.299L564.89,923.299z"/>
	<path d="M431.94,925.151c4.43-0.111,9.29-0.311,13.109,2.33c4.601,3.389,4.851,11.029,0.59,14.809
		c-4.239,4.32-11.01,3.191-16.38,2.41C429.28,938.081,431.26,931.7,431.94,925.151L431.94,925.151z"/>
	<path fill="#FFFFFF" d="M463.7,928.28c3.95,0.4,8.37-0.719,12.05,0.73c9.63,11.379,19.04,22.979,28.72,34.33
		c-0.06-9.422,1.75-18.951-0.028-28.291c-1.24-3.84-5.74-4.189-8.971-5.33c4.12-0.988,8.391-0.479,12.589-0.6
		c2.672,0.1,5.562-0.48,7.98,0.99c-2.44,0.639-4.87,1.318-7.18,2.35c-2.021,3.75-1.49,8.08-1.682,12.189
		c-0.729,10.229-0.37,20.52-1.108,30.76c-2.71-1.51-4.4-4.17-6.352-6.469c-8.399-10.012-16.62-20.17-24.99-30.211
		c0,9.949-0.75,20,0.921,29.859c0.909,3.939,5.439,4.369,8.71,5.23c-3.94,1.699-8.21,0.35-12.32,0.6
		c-2.84-0.24-6.021,0.689-8.561-0.939c3.211-0.68,8.08-0.529,8.57-4.82c1.18-8.629,0.08-17.42,0.47-26.109
		c0.49-5.58-2.909-11.959-8.72-13.061C463.77,929.19,463.72,928.59,463.7,928.28L463.7,928.28z"/>
	<path fill="#FFFFFF" d="M609.23,933.79c1.288-2.289,1.09-5.139,2.688-7.289c0.8,3.689,1.271,7.459,2.34,11.1
		c0.69,2.58,1.71,5.189,1.24,7.922c-1.58-2.221-2.74-4.91-5.19-6.33c-2.64-0.801-5.46-0.271-8.13,0.02
		c-0.729-0.529-1.448-1.041-2.17-1.551C603.25,937.129,607.09,936.6,609.23,933.79L609.23,933.79z"/>
	<path fill="#CFCFCF" d="M565.03,932.12c-0.261-1.67,1.08-2.66,2.31-3.449c0.48,6.311,0.65,12.66,1.58,18.939
		c0.65,6.971,2.08,14.24-0.38,21.041c1.85-0.051,3.71-0.092,5.58-0.141c-3.59,0.561-7.34,1.879-10.93,0.689
		c2.02-1.24,5.068-1.391,6.06-3.83c0.4-1.891,0.14-3.83,0.01-5.701c-1.068-8.578-1.42-17.209-2.34-25.789
		C566.45,933.44,565.51,932.559,565.03,932.12L565.03,932.12z"/>
	<path fill="#FFFFFF" d="M399.1,960c2.98-1.49,5.24-3.961,7.53-6.301c-0.09,4.271-3.25,7.66-4.55,11.609
		c-4.2-1.209-8.46-2.189-12.69-3.219C392.68,961.75,396.1,961.549,399.1,960L399.1,960z"/>
	<path fill="#CFCFCF" d="M378.61,959.62c1.75-0.129,3.5-0.24,5.26-0.18c4.979,1.24,10.17,1.43,15.229,0.561
		c-3,1.551-6.42,1.75-9.71,2.09c4.23,1.029,8.49,2.01,12.69,3.221c-2.83,0.33-5.53-0.67-8.21-1.359
		C388.77,962.559,383.55,961.53,378.61,959.62L378.61,959.62z"/>
	<path fill="#303030" d="M514.49,998.61c7.278-0.26,14.54-0.949,21.818-1.199l2.03,1.199H514.49L514.49,998.61z"/>
</g>
</svg>
